TITLE ""
FILE "LR_black_phrase_03.mp3" MP3
  TRACK 01 AUDIO
    TITLE "LR_black_phrase_03_0001"
    INDEX 01 00:00:00
  TRACK 02 AUDIO
    TITLE "LR_black_phrase_03_0002"
    INDEX 01 00:00:08
  TRACK 03 AUDIO
    TITLE "LR_black_phrase_03_0003"
    INDEX 01 00:01:31
  TRACK 04 AUDIO
    TITLE "LR_black_phrase_03_0004"
    INDEX 01 00:01:72
  TRACK 05 AUDIO
    TITLE "LR_black_phrase_03_0005"
    INDEX 01 00:04:53
  TRACK 06 AUDIO
    TITLE "LR_black_phrase_03_0006"
    INDEX 01 00:05:55
  TRACK 07 AUDIO
    TITLE "LR_black_phrase_03_0007"
    INDEX 01 00:08:00
  TRACK 08 AUDIO
    TITLE "LR_black_phrase_03_0008"
    INDEX 01 00:08:39
  TRACK 09 AUDIO
    TITLE "LR_black_phrase_03_0009"
    INDEX 01 00:10:58
  TRACK 10 AUDIO
    TITLE "LR_black_phrase_03_0010"
    INDEX 01 00:11:12
  TRACK 11 AUDIO
    TITLE "LR_black_phrase_03_0011"
    INDEX 01 00:13:31
  TRACK 12 AUDIO
    TITLE "LR_black_phrase_03_0012"
    INDEX 01 00:14:34
  TRACK 13 AUDIO
    TITLE "LR_black_phrase_03_0013"
    INDEX 01 00:15:59
  TRACK 14 AUDIO
    TITLE "LR_black_phrase_03_0014"
    INDEX 01 00:16:25
  TRACK 15 AUDIO
    TITLE "LR_black_phrase_03_0015"
    INDEX 01 00:17:71
  TRACK 16 AUDIO
    TITLE "LR_black_phrase_03_0016"
    INDEX 01 00:18:73
  TRACK 17 AUDIO
    TITLE "LR_black_phrase_03_0017"
    INDEX 01 00:21:48
  TRACK 18 AUDIO
    TITLE "LR_black_phrase_03_0018"
    INDEX 01 00:22:12
  TRACK 19 AUDIO
    TITLE "LR_black_phrase_03_0019"
    INDEX 01 00:24:01
  TRACK 20 AUDIO
    TITLE "LR_black_phrase_03_0020"
    INDEX 01 00:24:32
  TRACK 21 AUDIO
    TITLE "LR_black_phrase_03_0021"
    INDEX 01 00:26:21
  TRACK 22 AUDIO
    TITLE "LR_black_phrase_03_0022"
    INDEX 01 00:27:27
  TRACK 23 AUDIO
    TITLE "LR_black_phrase_03_0023"
    INDEX 01 00:28:52
  TRACK 24 AUDIO
    TITLE "LR_black_phrase_03_0024"
    INDEX 01 00:29:14
  TRACK 25 AUDIO
    TITLE "LR_black_phrase_03_0025"
    INDEX 01 00:32:30
  TRACK 26 AUDIO
    TITLE "LR_black_phrase_03_0026"
    INDEX 01 00:33:29
  TRACK 27 AUDIO
    TITLE "LR_black_phrase_03_0027"
    INDEX 01 00:35:58
  TRACK 28 AUDIO
    TITLE "LR_black_phrase_03_0028"
    INDEX 01 00:36:22
  TRACK 29 AUDIO
    TITLE "LR_black_phrase_03_0029"
    INDEX 01 00:38:56
  TRACK 30 AUDIO
    TITLE "LR_black_phrase_03_0030"
    INDEX 01 00:39:12
  TRACK 31 AUDIO
    TITLE "LR_black_phrase_03_0031"
    INDEX 01 00:41:46
  TRACK 32 AUDIO
    TITLE "LR_black_phrase_03_0032"
    INDEX 01 00:42:52
  TRACK 33 AUDIO
    TITLE "LR_black_phrase_03_0033"
    INDEX 01 00:44:00
  TRACK 34 AUDIO
    TITLE "LR_black_phrase_03_0034"
    INDEX 01 00:44:41
  TRACK 35 AUDIO
    TITLE "LR_black_phrase_03_0035"
    INDEX 01 00:47:71
  TRACK 36 AUDIO
    TITLE "LR_black_phrase_03_0036"
    INDEX 01 00:48:70
  TRACK 37 AUDIO
    TITLE "LR_black_phrase_03_0037"
    INDEX 01 00:50:65
  TRACK 38 AUDIO
    TITLE "LR_black_phrase_03_0038"
    INDEX 01 00:51:31
  TRACK 39 AUDIO
    TITLE "LR_black_phrase_03_0039"
    INDEX 01 00:53:69
  TRACK 40 AUDIO
    TITLE "LR_black_phrase_03_0040"
    INDEX 01 00:54:26
  TRACK 41 AUDIO
    TITLE "LR_black_phrase_03_0041"
    INDEX 01 00:56:64
  TRACK 42 AUDIO
    TITLE "LR_black_phrase_03_0042"
    INDEX 01 00:57:69
  TRACK 43 AUDIO
    TITLE "LR_black_phrase_03_0043"
    INDEX 01 00:59:33
  TRACK 44 AUDIO
    TITLE "LR_black_phrase_03_0044"
    INDEX 01 00:59:72
  TRACK 45 AUDIO
    TITLE "LR_black_phrase_03_0045"
    INDEX 01 01:02:58
  TRACK 46 AUDIO
    TITLE "LR_black_phrase_03_0046"
    INDEX 01 01:03:60
  TRACK 47 AUDIO
    TITLE "LR_black_phrase_03_0047"
    INDEX 01 01:05:63
  TRACK 48 AUDIO
    TITLE "LR_black_phrase_03_0048"
    INDEX 01 01:06:27
  TRACK 49 AUDIO
    TITLE "LR_black_phrase_03_0049"
    INDEX 01 01:08:39
  TRACK 50 AUDIO
    TITLE "LR_black_phrase_03_0050"
    INDEX 01 01:08:73
  TRACK 51 AUDIO
    TITLE "LR_black_phrase_03_0051"
    INDEX 01 01:11:10
  TRACK 52 AUDIO
    TITLE "LR_black_phrase_03_0052"
    INDEX 01 01:12:20
  TRACK 53 AUDIO
    TITLE "LR_black_phrase_03_0053"
    INDEX 01 01:13:33
  TRACK 54 AUDIO
    TITLE "LR_black_phrase_03_0054"
    INDEX 01 01:13:72
  TRACK 55 AUDIO
    TITLE "LR_black_phrase_03_0055"
    INDEX 01 01:16:31
  TRACK 56 AUDIO
    TITLE "LR_black_phrase_03_0056"
    INDEX 01 01:17:31
  TRACK 57 AUDIO
    TITLE "LR_black_phrase_03_0057"
    INDEX 01 01:19:10
  TRACK 58 AUDIO
    TITLE "LR_black_phrase_03_0058"
    INDEX 01 01:19:49
  TRACK 59 AUDIO
    TITLE "LR_black_phrase_03_0059"
    INDEX 01 01:21:56
  TRACK 60 AUDIO
    TITLE "LR_black_phrase_03_0060"
    INDEX 01 01:22:10
  TRACK 61 AUDIO
    TITLE "LR_black_phrase_03_0061"
    INDEX 01 01:24:15
  TRACK 62 AUDIO
    TITLE "LR_black_phrase_03_0062"
    INDEX 01 01:25:20
  TRACK 63 AUDIO
    TITLE "LR_black_phrase_03_0063"
    INDEX 01 01:26:35
  TRACK 64 AUDIO
    TITLE "LR_black_phrase_03_0064"
    INDEX 01 01:27:00
  TRACK 65 AUDIO
    TITLE "LR_black_phrase_03_0065"
    INDEX 01 01:29:06
  TRACK 66 AUDIO
    TITLE "LR_black_phrase_03_0066"
    INDEX 01 01:30:08
  TRACK 67 AUDIO
    TITLE "LR_black_phrase_03_0067"
    INDEX 01 01:32:32
  TRACK 68 AUDIO
    TITLE "LR_black_phrase_03_0068"
    INDEX 01 01:32:69
  TRACK 69 AUDIO
    TITLE "LR_black_phrase_03_0069"
    INDEX 01 01:35:36
  TRACK 70 AUDIO
    TITLE "LR_black_phrase_03_0070"
    INDEX 01 01:35:64
  TRACK 71 AUDIO
    TITLE "LR_black_phrase_03_0071"
    INDEX 01 01:38:31
  TRACK 72 AUDIO
    TITLE "LR_black_phrase_03_0072"
    INDEX 01 01:39:34
  TRACK 73 AUDIO
    TITLE "LR_black_phrase_03_0073"
    INDEX 01 01:40:41
  TRACK 74 AUDIO
    TITLE "LR_black_phrase_03_0074"
    INDEX 01 01:41:04
  TRACK 75 AUDIO
    TITLE "LR_black_phrase_03_0075"
    INDEX 01 01:42:23
  TRACK 76 AUDIO
    TITLE "LR_black_phrase_03_0076"
    INDEX 01 01:43:24
  TRACK 77 AUDIO
    TITLE "LR_black_phrase_03_0077"
    INDEX 01 01:45:35
  TRACK 78 AUDIO
    TITLE "LR_black_phrase_03_0078"
    INDEX 01 01:46:03
  TRACK 79 AUDIO
    TITLE "LR_black_phrase_03_0079"
    INDEX 01 01:47:55
  TRACK 80 AUDIO
    TITLE "LR_black_phrase_03_0080"
    INDEX 01 01:48:10
  TRACK 81 AUDIO
    TITLE "LR_black_phrase_03_0081"
    INDEX 01 01:49:64
  TRACK 82 AUDIO
    TITLE "LR_black_phrase_03_0082"
    INDEX 01 01:50:65
  TRACK 83 AUDIO
    TITLE "LR_black_phrase_03_0083"
    INDEX 01 01:52:07
  TRACK 84 AUDIO
    TITLE "LR_black_phrase_03_0084"
    INDEX 01 01:52:43
  TRACK 85 AUDIO
    TITLE "LR_black_phrase_03_0085"
    INDEX 01 01:55:45
  TRACK 86 AUDIO
    TITLE "LR_black_phrase_03_0086"
    INDEX 01 01:56:44
  TRACK 87 AUDIO
    TITLE "LR_black_phrase_03_0087"
    INDEX 01 01:58:53
  TRACK 88 AUDIO
    TITLE "LR_black_phrase_03_0088"
    INDEX 01 01:59:11
  TRACK 89 AUDIO
    TITLE "LR_black_phrase_03_0089"
    INDEX 01 02:01:16
  TRACK 90 AUDIO
    TITLE "LR_black_phrase_03_0090"
    INDEX 01 02:01:40
  TRACK 91 AUDIO
    TITLE "LR_black_phrase_03_0091"
    INDEX 01 02:03:44
  TRACK 92 AUDIO
    TITLE "LR_black_phrase_03_0092"
    INDEX 01 02:04:48
  TRACK 93 AUDIO
    TITLE "LR_black_phrase_03_0093"
    INDEX 01 02:06:02
  TRACK 94 AUDIO
    TITLE "LR_black_phrase_03_0094"
    INDEX 01 02:06:39
  TRACK 95 AUDIO
    TITLE "LR_black_phrase_03_0095"
    INDEX 01 02:09:04
  TRACK 96 AUDIO
    TITLE "LR_black_phrase_03_0096"
    INDEX 01 02:10:01
  TRACK 97 AUDIO
    TITLE "LR_black_phrase_03_0097"
    INDEX 01 02:12:37
  TRACK 98 AUDIO
    TITLE "LR_black_phrase_03_0098"
    INDEX 01 02:13:04
  TRACK 99 AUDIO
    TITLE "LR_black_phrase_03_0099"
    INDEX 01 02:15:67
  TRACK 100 AUDIO
    TITLE "LR_black_phrase_03_0100"
    INDEX 01 02:16:20
  TRACK 101 AUDIO
    TITLE "LR_black_phrase_03_0101"
    INDEX 01 02:19:08
  TRACK 102 AUDIO
    TITLE "LR_black_phrase_03_0102"
    INDEX 01 02:20:04
  TRACK 103 AUDIO
    TITLE "LR_black_phrase_03_0103"
    INDEX 01 02:21:31
  TRACK 104 AUDIO
    TITLE "LR_black_phrase_03_0104"
    INDEX 01 02:21:66
  TRACK 105 AUDIO
    TITLE "LR_black_phrase_03_0105"
    INDEX 01 02:24:33
  TRACK 106 AUDIO
    TITLE "LR_black_phrase_03_0106"
    INDEX 01 02:25:32
  TRACK 107 AUDIO
    TITLE "LR_black_phrase_03_0107"
    INDEX 01 02:27:57
  TRACK 108 AUDIO
    TITLE "LR_black_phrase_03_0108"
    INDEX 01 02:28:23
  TRACK 109 AUDIO
    TITLE "LR_black_phrase_03_0109"
    INDEX 01 02:30:51
  TRACK 110 AUDIO
    TITLE "LR_black_phrase_03_0110"
    INDEX 01 02:31:07
  TRACK 111 AUDIO
    TITLE "LR_black_phrase_03_0111"
    INDEX 01 02:33:38
  TRACK 112 AUDIO
    TITLE "LR_black_phrase_03_0112"
    INDEX 01 02:34:41
  TRACK 113 AUDIO
    TITLE "LR_black_phrase_03_0113"
    INDEX 01 02:35:54
  TRACK 114 AUDIO
    TITLE "LR_black_phrase_03_0114"
    INDEX 01 02:36:20
  TRACK 115 AUDIO
    TITLE "LR_black_phrase_03_0115"
    INDEX 01 02:37:51
  TRACK 116 AUDIO
    TITLE "LR_black_phrase_03_0116"
    INDEX 01 02:38:49
  TRACK 117 AUDIO
    TITLE "LR_black_phrase_03_0117"
    INDEX 01 02:41:57
  TRACK 118 AUDIO
    TITLE "LR_black_phrase_03_0118"
    INDEX 01 02:42:15
  TRACK 119 AUDIO
    TITLE "LR_black_phrase_03_0119"
    INDEX 01 02:44:61
  TRACK 120 AUDIO
    TITLE "LR_black_phrase_03_0120"
    INDEX 01 02:45:06
  TRACK 121 AUDIO
    TITLE "LR_black_phrase_03_0121"
    INDEX 01 02:47:52
  TRACK 122 AUDIO
    TITLE "LR_black_phrase_03_0122"
    INDEX 01 02:48:45
  TRACK 123 AUDIO
    TITLE "LR_black_phrase_03_0123"
    INDEX 01 02:49:58
  TRACK 124 AUDIO
    TITLE "LR_black_phrase_03_0124"
    INDEX 01 02:50:24
  TRACK 125 AUDIO
    TITLE "LR_black_phrase_03_0125"
    INDEX 01 02:52:15
  TRACK 126 AUDIO
    TITLE "LR_black_phrase_03_0126"
    INDEX 01 02:53:13
  TRACK 127 AUDIO
    TITLE "LR_black_phrase_03_0127"
    INDEX 01 02:55:43
  TRACK 128 AUDIO
    TITLE "LR_black_phrase_03_0128"
    INDEX 01 02:56:07
  TRACK 129 AUDIO
    TITLE "LR_black_phrase_03_0129"
    INDEX 01 02:58:26
  TRACK 130 AUDIO
    TITLE "LR_black_phrase_03_0130"
    INDEX 01 02:58:65
  TRACK 131 AUDIO
    TITLE "LR_black_phrase_03_0131"
    INDEX 01 03:01:09
  TRACK 132 AUDIO
    TITLE "LR_black_phrase_03_0132"
    INDEX 01 03:02:22
  TRACK 133 AUDIO
    TITLE "LR_black_phrase_03_0133"
    INDEX 01 03:03:39
  TRACK 134 AUDIO
    TITLE "LR_black_phrase_03_0134"
    INDEX 01 03:04:05
  TRACK 135 AUDIO
    TITLE "LR_black_phrase_03_0135"
    INDEX 01 03:05:38
  TRACK 136 AUDIO
    TITLE "LR_black_phrase_03_0136"
    INDEX 01 03:06:37
  TRACK 137 AUDIO
    TITLE "LR_black_phrase_03_0137"
    INDEX 01 03:08:73
  TRACK 138 AUDIO
    TITLE "LR_black_phrase_03_0138"
    INDEX 01 03:09:39
  TRACK 139 AUDIO
    TITLE "LR_black_phrase_03_0139"
    INDEX 01 03:11:50
  TRACK 140 AUDIO
    TITLE "LR_black_phrase_03_0140"
    INDEX 01 03:12:04
  TRACK 141 AUDIO
    TITLE "LR_black_phrase_03_0141"
    INDEX 01 03:14:19
  TRACK 142 AUDIO
    TITLE "LR_black_phrase_03_0142"
    INDEX 01 03:15:16
  TRACK 143 AUDIO
    TITLE "LR_black_phrase_03_0143"
    INDEX 01 03:16:43
  TRACK 144 AUDIO
    TITLE "LR_black_phrase_03_0144"
    INDEX 01 03:17:11
  TRACK 145 AUDIO
    TITLE "LR_black_phrase_03_0145"
    INDEX 01 03:18:70
  TRACK 146 AUDIO
    TITLE "LR_black_phrase_03_0146"
    INDEX 01 03:19:69
  TRACK 147 AUDIO
    TITLE "LR_black_phrase_03_0147"
    INDEX 01 03:22:60
  TRACK 148 AUDIO
    TITLE "LR_black_phrase_03_0148"
    INDEX 01 03:23:18
  TRACK 149 AUDIO
    TITLE "LR_black_phrase_03_0149"
    INDEX 01 03:25:70
  TRACK 150 AUDIO
    TITLE "LR_black_phrase_03_0150"
    INDEX 01 03:26:14
  TRACK 151 AUDIO
    TITLE "LR_black_phrase_03_0151"
    INDEX 01 03:28:66
  TRACK 152 AUDIO
    TITLE "LR_black_phrase_03_0152"
    INDEX 01 03:29:62
  TRACK 153 AUDIO
    TITLE "LR_black_phrase_03_0153"
    INDEX 01 03:31:15
  TRACK 154 AUDIO
    TITLE "LR_black_phrase_03_0154"
    INDEX 01 03:31:63
  TRACK 155 AUDIO
    TITLE "LR_black_phrase_03_0155"
    INDEX 01 03:32:66
  TRACK 156 AUDIO
    TITLE "LR_black_phrase_03_0156"
    INDEX 01 03:33:67
  TRACK 157 AUDIO
    TITLE "LR_black_phrase_03_0157"
    INDEX 01 03:35:37
  TRACK 158 AUDIO
    TITLE "LR_black_phrase_03_0158"
    INDEX 01 03:35:70
  TRACK 159 AUDIO
    TITLE "LR_black_phrase_03_0159"
    INDEX 01 03:37:51
  TRACK 160 AUDIO
    TITLE "LR_black_phrase_03_0160"
    INDEX 01 03:37:69
  TRACK 161 AUDIO
    TITLE "LR_black_phrase_03_0161"
    INDEX 01 03:39:50
  TRACK 162 AUDIO
    TITLE "LR_black_phrase_03_0162"
    INDEX 01 03:40:44
  TRACK 163 AUDIO
    TITLE "LR_black_phrase_03_0163"
    INDEX 01 03:41:55
  TRACK 164 AUDIO
    TITLE "LR_black_phrase_03_0164"
    INDEX 01 03:42:19
  TRACK 165 AUDIO
    TITLE "LR_black_phrase_03_0165"
    INDEX 01 03:43:30
  TRACK 166 AUDIO
    TITLE "LR_black_phrase_03_0166"
    INDEX 01 03:44:32
  TRACK 167 AUDIO
    TITLE "LR_black_phrase_03_0167"
    INDEX 01 03:47:28
  TRACK 168 AUDIO
    TITLE "LR_black_phrase_03_0168"
    INDEX 01 03:47:64
  TRACK 169 AUDIO
    TITLE "LR_black_phrase_03_0169"
    INDEX 01 03:50:70
  TRACK 170 AUDIO
    TITLE "LR_black_phrase_03_0170"
    INDEX 01 03:51:16
  TRACK 171 AUDIO
    TITLE "LR_black_phrase_03_0171"
    INDEX 01 03:54:22
  TRACK 172 AUDIO
    TITLE "LR_black_phrase_03_0172"
    INDEX 01 03:55:20
  TRACK 173 AUDIO
    TITLE "LR_black_phrase_03_0173"
    INDEX 01 03:56:35
  TRACK 174 AUDIO
    TITLE "LR_black_phrase_03_0174"
    INDEX 01 03:56:74
  TRACK 175 AUDIO
    TITLE "LR_black_phrase_03_0175"
    INDEX 01 03:58:07
  TRACK 176 AUDIO
    TITLE "LR_black_phrase_03_0176"
    INDEX 01 03:59:04
  TRACK 177 AUDIO
    TITLE "LR_black_phrase_03_0177"
    INDEX 01 04:01:34
  TRACK 178 AUDIO
    TITLE "LR_black_phrase_03_0178"
    INDEX 01 04:01:71
  TRACK 179 AUDIO
    TITLE "LR_black_phrase_03_0179"
    INDEX 01 04:04:52
  TRACK 180 AUDIO
    TITLE "LR_black_phrase_03_0180"
    INDEX 01 04:05:05
  TRACK 181 AUDIO
    TITLE "LR_black_phrase_03_0181"
    INDEX 01 04:07:60
  TRACK 182 AUDIO
    TITLE "LR_black_phrase_03_0182"
    INDEX 01 04:08:58
  TRACK 183 AUDIO
    TITLE "LR_black_phrase_03_0183"
    INDEX 01 04:10:16
  TRACK 184 AUDIO
    TITLE "LR_black_phrase_03_0184"
    INDEX 01 04:10:59
  TRACK 185 AUDIO
    TITLE "LR_black_phrase_03_0185"
    INDEX 01 04:12:12
  TRACK 186 AUDIO
    TITLE "LR_black_phrase_03_0186"
    INDEX 01 04:13:12
  TRACK 187 AUDIO
    TITLE "LR_black_phrase_03_0187"
    INDEX 01 04:14:66
  TRACK 188 AUDIO
    TITLE "LR_black_phrase_03_0188"
    INDEX 01 04:15:27
  TRACK 189 AUDIO
    TITLE "LR_black_phrase_03_0189"
    INDEX 01 04:17:45
  TRACK 190 AUDIO
    TITLE "LR_black_phrase_03_0190"
    INDEX 01 04:17:67
  TRACK 191 AUDIO
    TITLE "LR_black_phrase_03_0191"
    INDEX 01 04:20:10
  TRACK 192 AUDIO
    TITLE "LR_black_phrase_03_0192"
    INDEX 01 04:21:08
  TRACK 193 AUDIO
    TITLE "LR_black_phrase_03_0193"
    INDEX 01 04:22:36
  TRACK 194 AUDIO
    TITLE "LR_black_phrase_03_0194"
    INDEX 01 04:22:74
  TRACK 195 AUDIO
    TITLE "LR_black_phrase_03_0195"
    INDEX 01 04:25:25
  TRACK 196 AUDIO
    TITLE "LR_black_phrase_03_0196"
    INDEX 01 04:26:24
  TRACK 197 AUDIO
    TITLE "LR_black_phrase_03_0197"
    INDEX 01 04:28:00
  TRACK 198 AUDIO
    TITLE "LR_black_phrase_03_0198"
    INDEX 01 04:28:33
  TRACK 199 AUDIO
    TITLE "LR_black_phrase_03_0199"
    INDEX 01 04:30:38
  TRACK 200 AUDIO
    TITLE "LR_black_phrase_03_0200"
    INDEX 01 04:30:59
  TRACK 201 AUDIO
    TITLE "LR_black_phrase_03_0201"
    INDEX 01 04:32:66
  TRACK 202 AUDIO
    TITLE "LR_black_phrase_03_0202"
    INDEX 01 04:33:70
  TRACK 203 AUDIO
    TITLE "LR_black_phrase_03_0203"
    INDEX 01 04:35:15
  TRACK 204 AUDIO
    TITLE "LR_black_phrase_03_0204"
    INDEX 01 04:35:57
  TRACK 205 AUDIO
    TITLE "LR_black_phrase_03_0205"
    INDEX 01 04:39:41
  TRACK 206 AUDIO
    TITLE "LR_black_phrase_03_0206"
    INDEX 01 04:40:42
  TRACK 207 AUDIO
    TITLE "LR_black_phrase_03_0207"
    INDEX 01 04:42:66
  TRACK 208 AUDIO
    TITLE "LR_black_phrase_03_0208"
    INDEX 01 04:43:31
  TRACK 209 AUDIO
    TITLE "LR_black_phrase_03_0209"
    INDEX 01 04:45:43
  TRACK 210 AUDIO
    TITLE "LR_black_phrase_03_0210"
    INDEX 01 04:45:73
  TRACK 211 AUDIO
    TITLE "LR_black_phrase_03_0211"
    INDEX 01 04:48:10
  TRACK 212 AUDIO
    TITLE "LR_black_phrase_03_0212"
    INDEX 01 04:49:14
  TRACK 213 AUDIO
    TITLE "LR_black_phrase_03_0213"
    INDEX 01 04:50:54
  TRACK 214 AUDIO
    TITLE "LR_black_phrase_03_0214"
    INDEX 01 04:51:20
  TRACK 215 AUDIO
    TITLE "LR_black_phrase_03_0215"
    INDEX 01 04:54:11
  TRACK 216 AUDIO
    TITLE "LR_black_phrase_03_0216"
    INDEX 01 04:55:10
  TRACK 217 AUDIO
    TITLE "LR_black_phrase_03_0217"
    INDEX 01 04:57:03
  TRACK 218 AUDIO
    TITLE "LR_black_phrase_03_0218"
    INDEX 01 04:57:43
  TRACK 219 AUDIO
    TITLE "LR_black_phrase_03_0219"
    INDEX 01 04:59:39
  TRACK 220 AUDIO
    TITLE "LR_black_phrase_03_0220"
    INDEX 01 04:59:69
  TRACK 221 AUDIO
    TITLE "LR_black_phrase_03_0221"
    INDEX 01 05:01:66
  TRACK 222 AUDIO
    TITLE "LR_black_phrase_03_0222"
    INDEX 01 05:02:71
  TRACK 223 AUDIO
    TITLE "LR_black_phrase_03_0223"
    INDEX 01 05:04:23
  TRACK 224 AUDIO
    TITLE "LR_black_phrase_03_0224"
    INDEX 01 05:04:68
  TRACK 225 AUDIO
    TITLE "LR_black_phrase_03_0225"
    INDEX 01 05:07:27
  TRACK 226 AUDIO
    TITLE "LR_black_phrase_03_0226"
    INDEX 01 05:08:21
  TRACK 227 AUDIO
    TITLE "LR_black_phrase_03_0227"
    INDEX 01 05:09:67
  TRACK 228 AUDIO
    TITLE "LR_black_phrase_03_0228"
    INDEX 01 05:10:30
  TRACK 229 AUDIO
    TITLE "LR_black_phrase_03_0229"
    INDEX 01 05:12:24
  TRACK 230 AUDIO
    TITLE "LR_black_phrase_03_0230"
    INDEX 01 05:12:52
  TRACK 231 AUDIO
    TITLE "LR_black_phrase_03_0231"
    INDEX 01 05:14:45
  TRACK 232 AUDIO
    TITLE "LR_black_phrase_03_0232"
    INDEX 01 05:15:50
  TRACK 233 AUDIO
    TITLE "LR_black_phrase_03_0233"
    INDEX 01 05:16:67
  TRACK 234 AUDIO
    TITLE "LR_black_phrase_03_0234"
    INDEX 01 05:17:30
  TRACK 235 AUDIO
    TITLE "LR_black_phrase_03_0235"
    INDEX 01 05:19:68
  TRACK 236 AUDIO
    TITLE "LR_black_phrase_03_0236"
    INDEX 01 05:20:63
  TRACK 237 AUDIO
    TITLE "LR_black_phrase_03_0237"
    INDEX 01 05:23:52
  TRACK 238 AUDIO
    TITLE "LR_black_phrase_03_0238"
    INDEX 01 05:24:18
  TRACK 239 AUDIO
    TITLE "LR_black_phrase_03_0239"
    INDEX 01 05:26:30
  TRACK 240 AUDIO
    TITLE "LR_black_phrase_03_0240"
    INDEX 01 05:26:60
  TRACK 241 AUDIO
    TITLE "LR_black_phrase_03_0241"
    INDEX 01 05:28:74
  TRACK 242 AUDIO
    TITLE "LR_black_phrase_03_0242"
    INDEX 01 05:30:03
  TRACK 243 AUDIO
    TITLE "LR_black_phrase_03_0243"
    INDEX 01 05:31:24
  TRACK 244 AUDIO
    TITLE "LR_black_phrase_03_0244"
    INDEX 01 05:31:65
  TRACK 245 AUDIO
    TITLE "LR_black_phrase_03_0245"
    INDEX 01 05:33:19
  TRACK 246 AUDIO
    TITLE "LR_black_phrase_03_0246"
    INDEX 01 05:34:16
  TRACK 247 AUDIO
    TITLE "LR_black_phrase_03_0247"
    INDEX 01 05:36:56
  TRACK 248 AUDIO
    TITLE "LR_black_phrase_03_0248"
    INDEX 01 05:37:21
  TRACK 249 AUDIO
    TITLE "LR_black_phrase_03_0249"
    INDEX 01 05:39:41
  TRACK 250 AUDIO
    TITLE "LR_black_phrase_03_0250"
    INDEX 01 05:39:70
  TRACK 251 AUDIO
    TITLE "LR_black_phrase_03_0251"
    INDEX 01 05:42:16
  TRACK 252 AUDIO
    TITLE "LR_black_phrase_03_0252"
    INDEX 01 05:43:19
  TRACK 253 AUDIO
    TITLE "LR_black_phrase_03_0253"
    INDEX 01 05:44:32
  TRACK 254 AUDIO
    TITLE "LR_black_phrase_03_0254"
    INDEX 01 05:44:73
  TRACK 255 AUDIO
    TITLE "LR_black_phrase_03_0255"
    INDEX 01 05:47:56
  TRACK 256 AUDIO
    TITLE "LR_black_phrase_03_0256"
    INDEX 01 05:48:56
  TRACK 257 AUDIO
    TITLE "LR_black_phrase_03_0257"
    INDEX 01 05:50:55
  TRACK 258 AUDIO
    TITLE "LR_black_phrase_03_0258"
    INDEX 01 05:51:21
  TRACK 259 AUDIO
    TITLE "LR_black_phrase_03_0259"
    INDEX 01 05:53:10
  TRACK 260 AUDIO
    TITLE "LR_black_phrase_03_0260"
    INDEX 01 05:53:41
  TRACK 261 AUDIO
    TITLE "LR_black_phrase_03_0261"
    INDEX 01 05:55:30
  TRACK 262 AUDIO
    TITLE "LR_black_phrase_03_0262"
    INDEX 01 05:56:34
  TRACK 263 AUDIO
    TITLE "LR_black_phrase_03_0263"
    INDEX 01 05:57:47
  TRACK 264 AUDIO
    TITLE "LR_black_phrase_03_0264"
    INDEX 01 05:58:13
  TRACK 265 AUDIO
    TITLE "LR_black_phrase_03_0265"
    INDEX 01 05:59:53
  TRACK 266 AUDIO
    TITLE "LR_black_phrase_03_0266"
    INDEX 01 06:00:55
  TRACK 267 AUDIO
    TITLE "LR_black_phrase_03_0267"
    INDEX 01 06:03:24
  TRACK 268 AUDIO
    TITLE "LR_black_phrase_03_0268"
    INDEX 01 06:03:59
  TRACK 269 AUDIO
    TITLE "LR_black_phrase_03_0269"
    INDEX 01 06:06:28
  TRACK 270 AUDIO
    TITLE "LR_black_phrase_03_0270"
    INDEX 01 06:06:55
  TRACK 271 AUDIO
    TITLE "LR_black_phrase_03_0271"
    INDEX 01 06:09:22
  TRACK 272 AUDIO
    TITLE "LR_black_phrase_03_0272"
    INDEX 01 06:10:28
  TRACK 273 AUDIO
    TITLE "LR_black_phrase_03_0273"
    INDEX 01 06:11:39
  TRACK 274 AUDIO
    TITLE "LR_black_phrase_03_0274"
    INDEX 01 06:12:05
  TRACK 275 AUDIO
    TITLE "LR_black_phrase_03_0275"
    INDEX 01 06:13:32
  TRACK 276 AUDIO
    TITLE "LR_black_phrase_03_0276"
    INDEX 01 06:14:31
  TRACK 277 AUDIO
    TITLE "LR_black_phrase_03_0277"
    INDEX 01 06:16:24
  TRACK 278 AUDIO
    TITLE "LR_black_phrase_03_0278"
    INDEX 01 06:16:64
  TRACK 279 AUDIO
    TITLE "LR_black_phrase_03_0279"
    INDEX 01 06:18:37
  TRACK 280 AUDIO
    TITLE "LR_black_phrase_03_0280"
    INDEX 01 06:18:66
  TRACK 281 AUDIO
    TITLE "LR_black_phrase_03_0281"
    INDEX 01 06:20:40
  TRACK 282 AUDIO
    TITLE "LR_black_phrase_03_0282"
    INDEX 01 06:21:47
  TRACK 283 AUDIO
    TITLE "LR_black_phrase_03_0283"
    INDEX 01 06:22:62
  TRACK 284 AUDIO
    TITLE "LR_black_phrase_03_0284"
    INDEX 01 06:23:27
  TRACK 285 AUDIO
    TITLE "LR_black_phrase_03_0285"
    INDEX 01 06:26:11
  TRACK 286 AUDIO
    TITLE "LR_black_phrase_03_0286"
    INDEX 01 06:27:09
  TRACK 287 AUDIO
    TITLE "LR_black_phrase_03_0287"
    INDEX 01 06:30:01
  TRACK 288 AUDIO
    TITLE "LR_black_phrase_03_0288"
    INDEX 01 06:30:40
  TRACK 289 AUDIO
    TITLE "LR_black_phrase_03_0289"
    INDEX 01 06:34:03
  TRACK 290 AUDIO
    TITLE "LR_black_phrase_03_0290"
    INDEX 01 06:34:32
  TRACK 291 AUDIO
    TITLE "LR_black_phrase_03_0291"
    INDEX 01 06:37:72
  TRACK 292 AUDIO
    TITLE "LR_black_phrase_03_0292"
    INDEX 01 06:39:02
  TRACK 293 AUDIO
    TITLE "LR_black_phrase_03_0293"
    INDEX 01 06:40:27
  TRACK 294 AUDIO
    TITLE "LR_black_phrase_03_0294"
    INDEX 01 06:40:68
  TRACK 295 AUDIO
    TITLE "LR_black_phrase_03_0295"
    INDEX 01 06:42:47
  TRACK 296 AUDIO
    TITLE "LR_black_phrase_03_0296"
    INDEX 01 06:43:49
  TRACK 297 AUDIO
    TITLE "LR_black_phrase_03_0297"
    INDEX 01 06:47:49
  TRACK 298 AUDIO
    TITLE "LR_black_phrase_03_0298"
    INDEX 01 06:48:13
  TRACK 299 AUDIO
    TITLE "LR_black_phrase_03_0299"
    INDEX 01 06:50:00
  TRACK 300 AUDIO
    TITLE "LR_black_phrase_03_0300"
    INDEX 01 06:50:31
  TRACK 301 AUDIO
    TITLE "LR_black_phrase_03_0301"
    INDEX 01 06:52:20
  TRACK 302 AUDIO
    TITLE "LR_black_phrase_03_0302"
    INDEX 01 06:53:20
  TRACK 303 AUDIO
    TITLE "LR_black_phrase_03_0303"
    INDEX 01 06:54:43
  TRACK 304 AUDIO
    TITLE "LR_black_phrase_03_0304"
    INDEX 01 06:55:03
  TRACK 305 AUDIO
    TITLE "LR_black_phrase_03_0305"
    INDEX 01 06:57:53
  TRACK 306 AUDIO
    TITLE "LR_black_phrase_03_0306"
    INDEX 01 06:58:54
  TRACK 307 AUDIO
    TITLE "LR_black_phrase_03_0307"
    INDEX 01 07:00:30
  TRACK 308 AUDIO
    TITLE "LR_black_phrase_03_0308"
    INDEX 01 07:00:61
  TRACK 309 AUDIO
    TITLE "LR_black_phrase_03_0309"
    INDEX 01 07:02:32
  TRACK 310 AUDIO
    TITLE "LR_black_phrase_03_0310"
    INDEX 01 07:02:48
  TRACK 311 AUDIO
    TITLE "LR_black_phrase_03_0311"
    INDEX 01 07:04:20
  TRACK 312 AUDIO
    TITLE "LR_black_phrase_03_0312"
    INDEX 01 07:05:23
  TRACK 313 AUDIO
    TITLE "LR_black_phrase_03_0313"
    INDEX 01 07:06:44
  TRACK 314 AUDIO
    TITLE "LR_black_phrase_03_0314"
    INDEX 01 07:07:10
  TRACK 315 AUDIO
    TITLE "LR_black_phrase_03_0315"
    INDEX 01 07:09:40
  TRACK 316 AUDIO
    TITLE "LR_black_phrase_03_0316"
    INDEX 01 07:10:38
  TRACK 317 AUDIO
    TITLE "LR_black_phrase_03_0317"
    INDEX 01 07:12:15
  TRACK 318 AUDIO
    TITLE "LR_black_phrase_03_0318"
    INDEX 01 07:12:54
  TRACK 319 AUDIO
    TITLE "LR_black_phrase_03_0319"
    INDEX 01 07:14:53
  TRACK 320 AUDIO
    TITLE "LR_black_phrase_03_0320"
    INDEX 01 07:15:08
  TRACK 321 AUDIO
    TITLE "LR_black_phrase_03_0321"
    INDEX 01 07:17:07
  TRACK 322 AUDIO
    TITLE "LR_black_phrase_03_0322"
    INDEX 01 07:18:10
  TRACK 323 AUDIO
    TITLE "LR_black_phrase_03_0323"
    INDEX 01 07:19:35
  TRACK 324 AUDIO
    TITLE "LR_black_phrase_03_0324"
    INDEX 01 07:19:74
  TRACK 325 AUDIO
    TITLE "LR_black_phrase_03_0325"
    INDEX 01 07:22:25
  TRACK 326 AUDIO
    TITLE "LR_black_phrase_03_0326"
    INDEX 01 07:23:25
  TRACK 327 AUDIO
    TITLE "LR_black_phrase_03_0327"
    INDEX 01 07:24:58
  TRACK 328 AUDIO
    TITLE "LR_black_phrase_03_0328"
    INDEX 01 07:25:18
  TRACK 329 AUDIO
    TITLE "LR_black_phrase_03_0329"
    INDEX 01 07:27:03
  TRACK 330 AUDIO
    TITLE "LR_black_phrase_03_0330"
    INDEX 01 07:27:27
  TRACK 331 AUDIO
    TITLE "LR_black_phrase_03_0331"
    INDEX 01 07:29:12
  TRACK 332 AUDIO
    TITLE "LR_black_phrase_03_0332"
    INDEX 01 07:30:11
  TRACK 333 AUDIO
    TITLE "LR_black_phrase_03_0333"
    INDEX 01 07:31:24
  TRACK 334 AUDIO
    TITLE "LR_black_phrase_03_0334"
    INDEX 01 07:31:62
  TRACK 335 AUDIO
    TITLE "LR_black_phrase_03_0335"
    INDEX 01 07:34:17
  TRACK 336 AUDIO
    TITLE "LR_black_phrase_03_0336"
    INDEX 01 07:35:10
  TRACK 337 AUDIO
    TITLE "LR_black_phrase_03_0337"
    INDEX 01 07:37:43
  TRACK 338 AUDIO
    TITLE "LR_black_phrase_03_0338"
    INDEX 01 07:38:07
  TRACK 339 AUDIO
    TITLE "LR_black_phrase_03_0339"
    INDEX 01 07:41:17
  TRACK 340 AUDIO
    TITLE "LR_black_phrase_03_0340"
    INDEX 01 07:41:42
  TRACK 341 AUDIO
    TITLE "LR_black_phrase_03_0341"
    INDEX 01 07:44:54
  TRACK 342 AUDIO
    TITLE "LR_black_phrase_03_0342"
    INDEX 01 07:45:52
  TRACK 343 AUDIO
    TITLE "LR_black_phrase_03_0343"
    INDEX 01 07:46:55
  TRACK 344 AUDIO
    TITLE "LR_black_phrase_03_0344"
    INDEX 01 07:47:19
  TRACK 345 AUDIO
    TITLE "LR_black_phrase_03_0345"
    INDEX 01 07:48:68
  TRACK 346 AUDIO
    TITLE "LR_black_phrase_03_0346"
    INDEX 01 07:49:67
  TRACK 347 AUDIO
    TITLE "LR_black_phrase_03_0347"
    INDEX 01 07:52:38
  TRACK 348 AUDIO
    TITLE "LR_black_phrase_03_0348"
    INDEX 01 07:53:02
  TRACK 349 AUDIO
    TITLE "LR_black_phrase_03_0349"
    INDEX 01 07:55:33
  TRACK 350 AUDIO
    TITLE "LR_black_phrase_03_0350"
    INDEX 01 07:55:58
  TRACK 351 AUDIO
    TITLE "LR_black_phrase_03_0351"
    INDEX 01 07:58:11
  TRACK 352 AUDIO
    TITLE "LR_black_phrase_03_0352"
    INDEX 01 07:59:13
  TRACK 353 AUDIO
    TITLE "LR_black_phrase_03_0353"
    INDEX 01 08:00:46
  TRACK 354 AUDIO
    TITLE "LR_black_phrase_03_0354"
    INDEX 01 08:01:10
  TRACK 355 AUDIO
    TITLE "LR_black_phrase_03_0355"
    INDEX 01 08:02:23
  TRACK 356 AUDIO
    TITLE "LR_black_phrase_03_0356"
    INDEX 01 08:03:18
  TRACK 357 AUDIO
    TITLE "LR_black_phrase_03_0357"
    INDEX 01 08:05:11
  TRACK 358 AUDIO
    TITLE "LR_black_phrase_03_0358"
    INDEX 01 08:05:55
  TRACK 359 AUDIO
    TITLE "LR_black_phrase_03_0359"
    INDEX 01 08:08:14
  TRACK 360 AUDIO
    TITLE "LR_black_phrase_03_0360"
    INDEX 01 08:08:43
  TRACK 361 AUDIO
    TITLE "LR_black_phrase_03_0361"
    INDEX 01 08:11:00
  TRACK 362 AUDIO
    TITLE "LR_black_phrase_03_0362"
    INDEX 01 08:12:04
  TRACK 363 AUDIO
    TITLE "LR_black_phrase_03_0363"
    INDEX 01 08:13:27
  TRACK 364 AUDIO
    TITLE "LR_black_phrase_03_0364"
    INDEX 01 08:13:60
  TRACK 365 AUDIO
    TITLE "LR_black_phrase_03_0365"
    INDEX 01 08:16:35
  TRACK 366 AUDIO
    TITLE "LR_black_phrase_03_0366"
    INDEX 01 08:17:34
  TRACK 367 AUDIO
    TITLE "LR_black_phrase_03_0367"
    INDEX 01 08:19:70
  TRACK 368 AUDIO
    TITLE "LR_black_phrase_03_0368"
    INDEX 01 08:20:31
  TRACK 369 AUDIO
    TITLE "LR_black_phrase_03_0369"
    INDEX 01 08:23:11
  TRACK 370 AUDIO
    TITLE "LR_black_phrase_03_0370"
    INDEX 01 08:23:35
  TRACK 371 AUDIO
    TITLE "LR_black_phrase_03_0371"
    INDEX 01 08:26:16
  TRACK 372 AUDIO
    TITLE "LR_black_phrase_03_0372"
    INDEX 01 08:27:19
  TRACK 373 AUDIO
    TITLE "LR_black_phrase_03_0373"
    INDEX 01 08:28:36
  TRACK 374 AUDIO
    TITLE "LR_black_phrase_03_0374"
    INDEX 01 08:29:00
  TRACK 375 AUDIO
    TITLE "LR_black_phrase_03_0375"
    INDEX 01 08:31:11
  TRACK 376 AUDIO
    TITLE "LR_black_phrase_03_0376"
    INDEX 01 08:32:12
  TRACK 377 AUDIO
    TITLE "LR_black_phrase_03_0377"
    INDEX 01 08:34:39
  TRACK 378 AUDIO
    TITLE "LR_black_phrase_03_0378"
    INDEX 01 08:35:03
  TRACK 379 AUDIO
    TITLE "LR_black_phrase_03_0379"
    INDEX 01 08:37:13
  TRACK 380 AUDIO
    TITLE "LR_black_phrase_03_0380"
    INDEX 01 08:37:43
  TRACK 381 AUDIO
    TITLE "LR_black_phrase_03_0381"
    INDEX 01 08:39:51
  TRACK 382 AUDIO
    TITLE "LR_black_phrase_03_0382"
    INDEX 01 08:40:57
  TRACK 383 AUDIO
    TITLE "LR_black_phrase_03_0383"
    INDEX 01 08:41:70
  TRACK 384 AUDIO
    TITLE "LR_black_phrase_03_0384"
    INDEX 01 08:42:30
  TRACK 385 AUDIO
    TITLE "LR_black_phrase_03_0385"
    INDEX 01 08:45:21
  TRACK 386 AUDIO
    TITLE "LR_black_phrase_03_0386"
    INDEX 01 08:46:20
  TRACK 387 AUDIO
    TITLE "LR_black_phrase_03_0387"
    INDEX 01 08:47:57
  TRACK 388 AUDIO
    TITLE "LR_black_phrase_03_0388"
    INDEX 01 08:48:23
  TRACK 389 AUDIO
    TITLE "LR_black_phrase_03_0389"
    INDEX 01 08:50:65
  TRACK 390 AUDIO
    TITLE "LR_black_phrase_03_0390"
    INDEX 01 08:51:19
  TRACK 391 AUDIO
    TITLE "LR_black_phrase_03_0391"
    INDEX 01 08:53:63
  TRACK 392 AUDIO
    TITLE "LR_black_phrase_03_0392"
    INDEX 01 08:54:67
  TRACK 393 AUDIO
    TITLE "LR_black_phrase_03_0393"
    INDEX 01 08:56:15
  TRACK 394 AUDIO
    TITLE "LR_black_phrase_03_0394"
    INDEX 01 08:56:50
  TRACK 395 AUDIO
    TITLE "LR_black_phrase_03_0395"
    INDEX 01 08:57:51
  TRACK 396 AUDIO
    TITLE "LR_black_phrase_03_0396"
    INDEX 01 08:58:53
  TRACK 397 AUDIO
    TITLE "LR_black_phrase_03_0397"
    INDEX 01 09:00:60
  TRACK 398 AUDIO
    TITLE "LR_black_phrase_03_0398"
    INDEX 01 09:01:14
  TRACK 399 AUDIO
    TITLE "LR_black_phrase_03_0399"
    INDEX 01 09:04:16
  TRACK 400 AUDIO
    TITLE "LR_black_phrase_03_0400"
    INDEX 01 09:04:36
  TRACK 401 AUDIO
    TITLE "LR_black_phrase_03_0401"
    INDEX 01 09:07:38
  TRACK 402 AUDIO
    TITLE "LR_black_phrase_03_0402"
    INDEX 01 09:08:41
  TRACK 403 AUDIO
    TITLE "LR_black_phrase_03_0403"
    INDEX 01 09:09:60
  TRACK 404 AUDIO
    TITLE "LR_black_phrase_03_0404"
    INDEX 01 09:10:27
  TRACK 405 AUDIO
    TITLE "LR_black_phrase_03_0405"
    INDEX 01 09:11:55
  TRACK 406 AUDIO
    TITLE "LR_black_phrase_03_0406"
    INDEX 01 09:12:55
  TRACK 407 AUDIO
    TITLE "LR_black_phrase_03_0407"
    INDEX 01 09:14:54
  TRACK 408 AUDIO
    TITLE "LR_black_phrase_03_0408"
    INDEX 01 09:15:18
  TRACK 409 AUDIO
    TITLE "LR_black_phrase_03_0409"
    INDEX 01 09:17:34
  TRACK 410 AUDIO
    TITLE "LR_black_phrase_03_0410"
    INDEX 01 09:17:64
  TRACK 411 AUDIO
    TITLE "LR_black_phrase_03_0411"
    INDEX 01 09:20:07
  TRACK 412 AUDIO
    TITLE "LR_black_phrase_03_0412"
    INDEX 01 09:21:15
  TRACK 413 AUDIO
    TITLE "LR_black_phrase_03_0413"
    INDEX 01 09:22:18
  TRACK 414 AUDIO
    TITLE "LR_black_phrase_03_0414"
    INDEX 01 09:22:57
  TRACK 415 AUDIO
    TITLE "LR_black_phrase_03_0415"
    INDEX 01 09:24:62
  TRACK 416 AUDIO
    TITLE "LR_black_phrase_03_0416"
    INDEX 01 09:25:63
  TRACK 417 AUDIO
    TITLE "LR_black_phrase_03_0417"
    INDEX 01 09:27:27
  TRACK 418 AUDIO
    TITLE "LR_black_phrase_03_0418"
    INDEX 01 09:27:68
  TRACK 419 AUDIO
    TITLE "LR_black_phrase_03_0419"
    INDEX 01 09:29:32
  TRACK 420 AUDIO
    TITLE "LR_black_phrase_03_0420"
    INDEX 01 09:29:63
  TRACK 421 AUDIO
    TITLE "LR_black_phrase_03_0421"
    INDEX 01 09:31:27
  TRACK 422 AUDIO
    TITLE "LR_black_phrase_03_0422"
    INDEX 01 09:32:30
  TRACK 423 AUDIO
    TITLE "LR_black_phrase_03_0423"
    INDEX 01 09:33:59
  TRACK 424 AUDIO
    TITLE "LR_black_phrase_03_0424"
    INDEX 01 09:34:25
  TRACK 425 AUDIO
    TITLE "LR_black_phrase_03_0425"
    INDEX 01 09:36:59
  TRACK 426 AUDIO
    TITLE "LR_black_phrase_03_0426"
    INDEX 01 09:37:57
  TRACK 427 AUDIO
    TITLE "LR_black_phrase_03_0427"
    INDEX 01 09:39:32
  TRACK 428 AUDIO
    TITLE "LR_black_phrase_03_0428"
    INDEX 01 09:39:69
  TRACK 429 AUDIO
    TITLE "LR_black_phrase_03_0429"
    INDEX 01 09:41:58
  TRACK 430 AUDIO
    TITLE "LR_black_phrase_03_0430"
    INDEX 01 09:42:13
  TRACK 431 AUDIO
    TITLE "LR_black_phrase_03_0431"
    INDEX 01 09:44:00
  TRACK 432 AUDIO
    TITLE "LR_black_phrase_03_0432"
    INDEX 01 09:45:05
  TRACK 433 AUDIO
    TITLE "LR_black_phrase_03_0433"
    INDEX 01 09:46:17
  TRACK 434 AUDIO
    TITLE "LR_black_phrase_03_0434"
    INDEX 01 09:46:58
  TRACK 435 AUDIO
    TITLE "LR_black_phrase_03_0435"
    INDEX 01 09:48:59
  TRACK 436 AUDIO
    TITLE "LR_black_phrase_03_0436"
    INDEX 01 09:49:56
  TRACK 437 AUDIO
    TITLE "LR_black_phrase_03_0437"
    INDEX 01 09:52:11
  TRACK 438 AUDIO
    TITLE "LR_black_phrase_03_0438"
    INDEX 01 09:52:52
  TRACK 439 AUDIO
    TITLE "LR_black_phrase_03_0439"
    INDEX 01 09:54:34
  TRACK 440 AUDIO
    TITLE "LR_black_phrase_03_0440"
    INDEX 01 09:54:63
  TRACK 441 AUDIO
    TITLE "LR_black_phrase_03_0441"
    INDEX 01 09:56:42
  TRACK 442 AUDIO
    TITLE "LR_black_phrase_03_0442"
    INDEX 01 09:57:48
  TRACK 443 AUDIO
    TITLE "LR_black_phrase_03_0443"
    INDEX 01 09:58:65
  TRACK 444 AUDIO
    TITLE "LR_black_phrase_03_0444"
    INDEX 01 09:59:27
  TRACK 445 AUDIO
    TITLE "LR_black_phrase_03_0445"
    INDEX 01 10:01:22
  TRACK 446 AUDIO
    TITLE "LR_black_phrase_03_0446"
    INDEX 01 10:02:21
  TRACK 447 AUDIO
    TITLE "LR_black_phrase_03_0447"
    INDEX 01 10:04:22
  TRACK 448 AUDIO
    TITLE "LR_black_phrase_03_0448"
    INDEX 01 10:04:61
  TRACK 449 AUDIO
    TITLE "LR_black_phrase_03_0449"
    INDEX 01 10:07:25
  TRACK 450 AUDIO
    TITLE "LR_black_phrase_03_0450"
    INDEX 01 10:07:52
  TRACK 451 AUDIO
    TITLE "LR_black_phrase_03_0451"
    INDEX 01 10:10:15
  TRACK 452 AUDIO
    TITLE "LR_black_phrase_03_0452"
    INDEX 01 10:11:20
  TRACK 453 AUDIO
    TITLE "LR_black_phrase_03_0453"
    INDEX 01 10:12:24
  TRACK 454 AUDIO
    TITLE "LR_black_phrase_03_0454"
    INDEX 01 10:12:63
  TRACK 455 AUDIO
    TITLE "LR_black_phrase_03_0455"
    INDEX 01 10:15:12
  TRACK 456 AUDIO
    TITLE "LR_black_phrase_03_0456"
    INDEX 01 10:16:10
  TRACK 457 AUDIO
    TITLE "LR_black_phrase_03_0457"
    INDEX 01 10:17:74
  TRACK 458 AUDIO
    TITLE "LR_black_phrase_03_0458"
    INDEX 01 10:18:38
  TRACK 459 AUDIO
    TITLE "LR_black_phrase_03_0459"
    INDEX 01 10:20:19
  TRACK 460 AUDIO
    TITLE "LR_black_phrase_03_0460"
    INDEX 01 10:20:49
  TRACK 461 AUDIO
    TITLE "LR_black_phrase_03_0461"
    INDEX 01 10:22:28
  TRACK 462 AUDIO
    TITLE "LR_black_phrase_03_0462"
    INDEX 01 10:23:31
  TRACK 463 AUDIO
    TITLE "LR_black_phrase_03_0463"
    INDEX 01 10:24:37
  TRACK 464 AUDIO
    TITLE "LR_black_phrase_03_0464"
    INDEX 01 10:24:72
  TRACK 465 AUDIO
    TITLE "LR_black_phrase_03_0465"
    INDEX 01 10:26:06
  TRACK 466 AUDIO
    TITLE "LR_black_phrase_03_0466"
    INDEX 01 10:27:04
  TRACK 467 AUDIO
    TITLE "LR_black_phrase_03_0467"
    INDEX 01 10:29:54
  TRACK 468 AUDIO
    TITLE "LR_black_phrase_03_0468"
    INDEX 01 10:30:18
  TRACK 469 AUDIO
    TITLE "LR_black_phrase_03_0469"
    INDEX 01 10:32:42
  TRACK 470 AUDIO
    TITLE "LR_black_phrase_03_0470"
    INDEX 01 10:32:72
  TRACK 471 AUDIO
    TITLE "LR_black_phrase_03_0471"
    INDEX 01 10:35:21
  TRACK 472 AUDIO
    TITLE "LR_black_phrase_03_0472"
    INDEX 01 10:36:26
  TRACK 473 AUDIO
    TITLE "LR_black_phrase_03_0473"
    INDEX 01 10:37:41
  TRACK 474 AUDIO
    TITLE "LR_black_phrase_03_0474"
    INDEX 01 10:38:07
  TRACK 475 AUDIO
    TITLE "LR_black_phrase_03_0475"
    INDEX 01 10:40:32
  TRACK 476 AUDIO
    TITLE "LR_black_phrase_03_0476"
    INDEX 01 10:41:33
  TRACK 477 AUDIO
    TITLE "LR_black_phrase_03_0477"
    INDEX 01 10:43:67
  TRACK 478 AUDIO
    TITLE "LR_black_phrase_03_0478"
    INDEX 01 10:44:32
  TRACK 479 AUDIO
    TITLE "LR_black_phrase_03_0479"
    INDEX 01 10:47:04
  TRACK 480 AUDIO
    TITLE "LR_black_phrase_03_0480"
    INDEX 01 10:47:34
  TRACK 481 AUDIO
    TITLE "LR_black_phrase_03_0481"
    INDEX 01 10:50:07
  TRACK 482 AUDIO
    TITLE "LR_black_phrase_03_0482"
    INDEX 01 10:51:12
  TRACK 483 AUDIO
    TITLE "LR_black_phrase_03_0483"
    INDEX 01 10:52:21
  TRACK 484 AUDIO
    TITLE "LR_black_phrase_03_0484"
    INDEX 01 10:52:62
  TRACK 485 AUDIO
    TITLE "LR_black_phrase_03_0485"
    INDEX 01 10:53:72
  TRACK 486 AUDIO
    TITLE "LR_black_phrase_03_0486"
    INDEX 01 10:54:69
  TRACK 487 AUDIO
    TITLE "LR_black_phrase_03_0487"
    INDEX 01 10:57:15
  TRACK 488 AUDIO
    TITLE "LR_black_phrase_03_0488"
    INDEX 01 10:57:54
  TRACK 489 AUDIO
    TITLE "LR_black_phrase_03_0489"
    INDEX 01 10:59:66
  TRACK 490 AUDIO
    TITLE "LR_black_phrase_03_0490"
    INDEX 01 11:00:23
  TRACK 491 AUDIO
    TITLE "LR_black_phrase_03_0491"
    INDEX 01 11:02:33
  TRACK 492 AUDIO
    TITLE "LR_black_phrase_03_0492"
    INDEX 01 11:03:39
  TRACK 493 AUDIO
    TITLE "LR_black_phrase_03_0493"
    INDEX 01 11:04:62
  TRACK 494 AUDIO
    TITLE "LR_black_phrase_03_0494"
    INDEX 01 11:05:28
  TRACK 495 AUDIO
    TITLE "LR_black_phrase_03_0495"
    INDEX 01 11:07:72
  TRACK 496 AUDIO
    TITLE "LR_black_phrase_03_0496"
    INDEX 01 11:08:71
  TRACK 497 AUDIO
    TITLE "LR_black_phrase_03_0497"
    INDEX 01 11:11:50
  TRACK 498 AUDIO
    TITLE "LR_black_phrase_03_0498"
    INDEX 01 11:12:16
  TRACK 499 AUDIO
    TITLE "LR_black_phrase_03_0499"
    INDEX 01 11:14:23
  TRACK 500 AUDIO
    TITLE "LR_black_phrase_03_0500"
    INDEX 01 11:14:54
  TRACK 501 AUDIO
    TITLE "LR_black_phrase_03_0501"
    INDEX 01 11:16:61
  TRACK 502 AUDIO
    TITLE "LR_black_phrase_03_0502"
    INDEX 01 11:17:57
  TRACK 503 AUDIO
    TITLE "LR_black_phrase_03_0503"
    INDEX 01 11:19:24
  TRACK 504 AUDIO
    TITLE "LR_black_phrase_03_0504"
    INDEX 01 11:19:63
  TRACK 505 AUDIO
    TITLE "LR_black_phrase_03_0505"
    INDEX 01 11:23:00
  TRACK 506 AUDIO
    TITLE "LR_black_phrase_03_0506"
    INDEX 01 11:24:00
  TRACK 507 AUDIO
    TITLE "LR_black_phrase_03_0507"
    INDEX 01 11:26:42
  TRACK 508 AUDIO
    TITLE "LR_black_phrase_03_0508"
    INDEX 01 11:27:00
  TRACK 509 AUDIO
    TITLE "LR_black_phrase_03_0509"
    INDEX 01 11:29:62
  TRACK 510 AUDIO
    TITLE "LR_black_phrase_03_0510"
    INDEX 01 11:30:06
  TRACK 511 AUDIO
    TITLE "LR_black_phrase_03_0511"
    INDEX 01 11:32:68
  TRACK 512 AUDIO
    TITLE "LR_black_phrase_03_0512"
    INDEX 01 11:33:65
  TRACK 513 AUDIO
    TITLE "LR_black_phrase_03_0513"
    INDEX 01 11:35:13
  TRACK 514 AUDIO
    TITLE "LR_black_phrase_03_0514"
    INDEX 01 11:35:49
  TRACK 515 AUDIO
    TITLE "LR_black_phrase_03_0515"
    INDEX 01 11:37:63
  TRACK 516 AUDIO
    TITLE "LR_black_phrase_03_0516"
    INDEX 01 11:38:63
  TRACK 517 AUDIO
    TITLE "LR_black_phrase_03_0517"
    INDEX 01 11:40:12
  TRACK 518 AUDIO
    TITLE "LR_black_phrase_03_0518"
    INDEX 01 11:40:54
  TRACK 519 AUDIO
    TITLE "LR_black_phrase_03_0519"
    INDEX 01 11:42:68
  TRACK 520 AUDIO
    TITLE "LR_black_phrase_03_0520"
    INDEX 01 11:43:13
  TRACK 521 AUDIO
    TITLE "LR_black_phrase_03_0521"
    INDEX 01 11:45:27
  TRACK 522 AUDIO
    TITLE "LR_black_phrase_03_0522"
    INDEX 01 11:46:23
  TRACK 523 AUDIO
    TITLE "LR_black_phrase_03_0523"
    INDEX 01 11:47:50
  TRACK 524 AUDIO
    TITLE "LR_black_phrase_03_0524"
    INDEX 01 11:48:12
  TRACK 525 AUDIO
    TITLE "LR_black_phrase_03_0525"
    INDEX 01 11:50:30
  TRACK 526 AUDIO
    TITLE "LR_black_phrase_03_0526"
    INDEX 01 11:51:28
  TRACK 527 AUDIO
    TITLE "LR_black_phrase_03_0527"
    INDEX 01 11:52:51
  TRACK 528 AUDIO
    TITLE "LR_black_phrase_03_0528"
    INDEX 01 11:53:09
  TRACK 529 AUDIO
    TITLE "LR_black_phrase_03_0529"
    INDEX 01 11:55:10
  TRACK 530 AUDIO
    TITLE "LR_black_phrase_03_0530"
    INDEX 01 11:55:34
  TRACK 531 AUDIO
    TITLE "LR_black_phrase_03_0531"
    INDEX 01 11:57:33
  TRACK 532 AUDIO
    TITLE "LR_black_phrase_03_0532"
    INDEX 01 11:58:32
  TRACK 533 AUDIO
    TITLE "LR_black_phrase_03_0533"
    INDEX 01 11:59:61
  TRACK 534 AUDIO
    TITLE "LR_black_phrase_03_0534"
    INDEX 01 12:00:27
  TRACK 535 AUDIO
    TITLE "LR_black_phrase_03_0535"
    INDEX 01 12:03:16
  TRACK 536 AUDIO
    TITLE "LR_black_phrase_03_0536"
    INDEX 01 12:04:13
  TRACK 537 AUDIO
    TITLE "LR_black_phrase_03_0537"
    INDEX 01 12:06:20
  TRACK 538 AUDIO
    TITLE "LR_black_phrase_03_0538"
    INDEX 01 12:06:61
  TRACK 539 AUDIO
    TITLE "LR_black_phrase_03_0539"
    INDEX 01 12:09:22
  TRACK 540 AUDIO
    TITLE "LR_black_phrase_03_0540"
    INDEX 01 12:09:51
  TRACK 541 AUDIO
    TITLE "LR_black_phrase_03_0541"
    INDEX 01 12:12:14
  TRACK 542 AUDIO
    TITLE "LR_black_phrase_03_0542"
    INDEX 01 12:13:20
  TRACK 543 AUDIO
    TITLE "LR_black_phrase_03_0543"
    INDEX 01 12:14:31
  TRACK 544 AUDIO
    TITLE "LR_black_phrase_03_0544"
    INDEX 01 12:14:66
  TRACK 545 AUDIO
    TITLE "LR_black_phrase_03_0545"
    INDEX 01 12:16:26
  TRACK 546 AUDIO
    TITLE "LR_black_phrase_03_0546"
    INDEX 01 12:17:25
  TRACK 547 AUDIO
    TITLE "LR_black_phrase_03_0547"
    INDEX 01 12:20:22
  TRACK 548 AUDIO
    TITLE "LR_black_phrase_03_0548"
    INDEX 01 12:20:57
  TRACK 549 AUDIO
    TITLE "LR_black_phrase_03_0549"
    INDEX 01 12:23:28
  TRACK 550 AUDIO
    TITLE "LR_black_phrase_03_0550"
    INDEX 01 12:23:51
  TRACK 551 AUDIO
    TITLE "LR_black_phrase_03_0551"
    INDEX 01 12:26:22
  TRACK 552 AUDIO
    TITLE "LR_black_phrase_03_0552"
    INDEX 01 12:27:20
  TRACK 553 AUDIO
    TITLE "LR_black_phrase_03_0553"
    INDEX 01 12:28:51
  TRACK 554 AUDIO
    TITLE "LR_black_phrase_03_0554"
    INDEX 01 12:29:19
  TRACK 555 AUDIO
    TITLE "LR_black_phrase_03_0555"
    INDEX 01 12:30:50
  TRACK 556 AUDIO
    TITLE "LR_black_phrase_03_0556"
    INDEX 01 12:31:49
  TRACK 557 AUDIO
    TITLE "LR_black_phrase_03_0557"
    INDEX 01 12:33:44
  TRACK 558 AUDIO
    TITLE "LR_black_phrase_03_0558"
    INDEX 01 12:34:04
  TRACK 559 AUDIO
    TITLE "LR_black_phrase_03_0559"
    INDEX 01 12:35:74
  TRACK 560 AUDIO
    TITLE "LR_black_phrase_03_0560"
    INDEX 01 12:36:27
  TRACK 561 AUDIO
    TITLE "LR_black_phrase_03_0561"
    INDEX 01 12:38:22
  TRACK 562 AUDIO
    TITLE "LR_black_phrase_03_0562"
    INDEX 01 12:39:25
  TRACK 563 AUDIO
    TITLE "LR_black_phrase_03_0563"
    INDEX 01 12:40:34
  TRACK 564 AUDIO
    TITLE "LR_black_phrase_03_0564"
    INDEX 01 12:41:04
  TRACK 565 AUDIO
    TITLE "LR_black_phrase_03_0565"
    INDEX 01 12:42:16
  TRACK 566 AUDIO
    TITLE "LR_black_phrase_03_0566"
    INDEX 01 12:43:13
  TRACK 567 AUDIO
    TITLE "LR_black_phrase_03_0567"
    INDEX 01 12:45:04
  TRACK 568 AUDIO
    TITLE "LR_black_phrase_03_0568"
    INDEX 01 12:45:37
  TRACK 569 AUDIO
    TITLE "LR_black_phrase_03_0569"
    INDEX 01 12:47:58
  TRACK 570 AUDIO
    TITLE "LR_black_phrase_03_0570"
    INDEX 01 12:48:04
  TRACK 571 AUDIO
    TITLE "LR_black_phrase_03_0571"
    INDEX 01 12:50:27
  TRACK 572 AUDIO
    TITLE "LR_black_phrase_03_0572"
    INDEX 01 12:51:22
  TRACK 573 AUDIO
    TITLE "LR_black_phrase_03_0573"
    INDEX 01 12:52:53
  TRACK 574 AUDIO
    TITLE "LR_black_phrase_03_0574"
    INDEX 01 12:53:17
  TRACK 575 AUDIO
    TITLE "LR_black_phrase_03_0575"
    INDEX 01 12:54:30
  TRACK 576 AUDIO
    TITLE "LR_black_phrase_03_0576"
    INDEX 01 12:55:24
  TRACK 577 AUDIO
    TITLE "LR_black_phrase_03_0577"
    INDEX 01 12:56:73
  TRACK 578 AUDIO
    TITLE "LR_black_phrase_03_0578"
    INDEX 01 12:57:29
  TRACK 579 AUDIO
    TITLE "LR_black_phrase_03_0579"
    INDEX 01 12:59:24
  TRACK 580 AUDIO
    TITLE "LR_black_phrase_03_0580"
    INDEX 01 12:59:45
  TRACK 581 AUDIO
    TITLE "LR_black_phrase_03_0581"
    INDEX 01 13:01:40
  TRACK 582 AUDIO
    TITLE "LR_black_phrase_03_0582"
    INDEX 01 13:02:36
  TRACK 583 AUDIO
    TITLE "LR_black_phrase_03_0583"
    INDEX 01 13:03:57
  TRACK 584 AUDIO
    TITLE "LR_black_phrase_03_0584"
    INDEX 01 13:04:17
  TRACK 585 AUDIO
    TITLE "LR_black_phrase_03_0585"
    INDEX 01 13:05:58
  TRACK 586 AUDIO
    TITLE "LR_black_phrase_03_0586"
    INDEX 01 13:06:57
  TRACK 587 AUDIO
    TITLE "LR_black_phrase_03_0587"
    INDEX 01 13:09:34
  TRACK 588 AUDIO
    TITLE "LR_black_phrase_03_0588"
    INDEX 01 13:09:67
  TRACK 589 AUDIO
    TITLE "LR_black_phrase_03_0589"
    INDEX 01 13:12:40
  TRACK 590 AUDIO
    TITLE "LR_black_phrase_03_0590"
    INDEX 01 13:12:62
  TRACK 591 AUDIO
    TITLE "LR_black_phrase_03_0591"
    INDEX 01 13:15:37
  TRACK 592 AUDIO
    TITLE "LR_black_phrase_03_0592"
    INDEX 01 13:16:32
  TRACK 593 AUDIO
    TITLE "LR_black_phrase_03_0593"
    INDEX 01 13:17:55
  TRACK 594 AUDIO
    TITLE "LR_black_phrase_03_0594"
    INDEX 01 13:18:13
  TRACK 595 AUDIO
    TITLE "LR_black_phrase_03_0595"
    INDEX 01 13:21:45
  TRACK 596 AUDIO
    TITLE "LR_black_phrase_03_0596"
    INDEX 01 13:22:44
  TRACK 597 AUDIO
    TITLE "LR_black_phrase_03_0597"
    INDEX 01 13:24:28
  TRACK 598 AUDIO
    TITLE "LR_black_phrase_03_0598"
    INDEX 01 13:24:63
  TRACK 599 AUDIO
    TITLE "LR_black_phrase_03_0599"
    INDEX 01 13:26:56
  TRACK 600 AUDIO
    TITLE "LR_black_phrase_03_0600"
    INDEX 01 13:27:03
  TRACK 601 AUDIO
    TITLE "LR_black_phrase_03_0601"
    INDEX 01 13:28:73
  TRACK 602 AUDIO
    TITLE "LR_black_phrase_03_0602"
    INDEX 01 13:29:72
  TRACK 603 AUDIO
    TITLE "LR_black_phrase_03_0603"
    INDEX 01 13:31:34
  TRACK 604 AUDIO
    TITLE "LR_black_phrase_03_0604"
    INDEX 01 13:31:73
  TRACK 605 AUDIO
    TITLE "LR_black_phrase_03_0605"
    INDEX 01 13:35:04
  TRACK 606 AUDIO
    TITLE "LR_black_phrase_03_0606"
    INDEX 01 13:36:03
  TRACK 607 AUDIO
    TITLE "LR_black_phrase_03_0607"
    INDEX 01 13:38:28
  TRACK 608 AUDIO
    TITLE "LR_black_phrase_03_0608"
    INDEX 01 13:38:67
  TRACK 609 AUDIO
    TITLE "LR_black_phrase_03_0609"
    INDEX 01 13:41:42
  TRACK 610 AUDIO
    TITLE "LR_black_phrase_03_0610"
    INDEX 01 13:41:71
  TRACK 611 AUDIO
    TITLE "LR_black_phrase_03_0611"
    INDEX 01 13:44:46
  TRACK 612 AUDIO
    TITLE "LR_black_phrase_03_0612"
    INDEX 01 13:45:53
  TRACK 613 AUDIO
    TITLE "LR_black_phrase_03_0613"
    INDEX 01 13:46:66
  TRACK 614 AUDIO
    TITLE "LR_black_phrase_03_0614"
    INDEX 01 13:47:33
  TRACK 615 AUDIO
    TITLE "LR_black_phrase_03_0615"
    INDEX 01 13:48:69
  TRACK 616 AUDIO
    TITLE "LR_black_phrase_03_0616"
    INDEX 01 13:49:67
  TRACK 617 AUDIO
    TITLE "LR_black_phrase_03_0617"
    INDEX 01 13:52:01
  TRACK 618 AUDIO
    TITLE "LR_black_phrase_03_0618"
    INDEX 01 13:52:40
  TRACK 619 AUDIO
    TITLE "LR_black_phrase_03_0619"
    INDEX 01 13:54:42
  TRACK 620 AUDIO
    TITLE "LR_black_phrase_03_0620"
    INDEX 01 13:54:72
  TRACK 621 AUDIO
    TITLE "LR_black_phrase_03_0621"
    INDEX 01 13:57:00
  TRACK 622 AUDIO
    TITLE "LR_black_phrase_03_0622"
    INDEX 01 13:58:05
  TRACK 623 AUDIO
    TITLE "LR_black_phrase_03_0623"
    INDEX 01 13:59:36
  TRACK 624 AUDIO
    TITLE "LR_black_phrase_03_0624"
    INDEX 01 14:00:00
  TRACK 625 AUDIO
    TITLE "LR_black_phrase_03_0625"
    INDEX 01 14:01:29
  TRACK 626 AUDIO
    TITLE "LR_black_phrase_03_0626"
    INDEX 01 14:02:30
  TRACK 627 AUDIO
    TITLE "LR_black_phrase_03_0627"
    INDEX 01 14:04:19
  TRACK 628 AUDIO
    TITLE "LR_black_phrase_03_0628"
    INDEX 01 14:04:59
  TRACK 629 AUDIO
    TITLE "LR_black_phrase_03_0629"
    INDEX 01 14:06:54
  TRACK 630 AUDIO
    TITLE "LR_black_phrase_03_0630"
    INDEX 01 14:07:10
  TRACK 631 AUDIO
    TITLE "LR_black_phrase_03_0631"
    INDEX 01 14:09:03
  TRACK 632 AUDIO
    TITLE "LR_black_phrase_03_0632"
    INDEX 01 14:10:10
  TRACK 633 AUDIO
    TITLE "LR_black_phrase_03_0633"
    INDEX 01 14:11:33
  TRACK 634 AUDIO
    TITLE "LR_black_phrase_03_0634"
    INDEX 01 14:11:70
  TRACK 635 AUDIO
    TITLE "LR_black_phrase_03_0635"
    INDEX 01 14:14:61
  TRACK 636 AUDIO
    TITLE "LR_black_phrase_03_0636"
    INDEX 01 14:15:60
  TRACK 637 AUDIO
    TITLE "LR_black_phrase_03_0637"
    INDEX 01 14:17:73
  TRACK 638 AUDIO
    TITLE "LR_black_phrase_03_0638"
    INDEX 01 14:18:37
  TRACK 639 AUDIO
    TITLE "LR_black_phrase_03_0639"
    INDEX 01 14:20:54
  TRACK 640 AUDIO
    TITLE "LR_black_phrase_03_0640"
    INDEX 01 14:21:08
  TRACK 641 AUDIO
    TITLE "LR_black_phrase_03_0641"
    INDEX 01 14:23:23
  TRACK 642 AUDIO
    TITLE "LR_black_phrase_03_0642"
    INDEX 01 14:24:28
  TRACK 643 AUDIO
    TITLE "LR_black_phrase_03_0643"
    INDEX 01 14:25:45
  TRACK 644 AUDIO
    TITLE "LR_black_phrase_03_0644"
    INDEX 01 14:26:11
  TRACK 645 AUDIO
    TITLE "LR_black_phrase_03_0645"
    INDEX 01 14:27:48
  TRACK 646 AUDIO
    TITLE "LR_black_phrase_03_0646"
    INDEX 01 14:28:47
  TRACK 647 AUDIO
    TITLE "LR_black_phrase_03_0647"
    INDEX 01 14:30:32
  TRACK 648 AUDIO
    TITLE "LR_black_phrase_03_0648"
    INDEX 01 14:30:72
  TRACK 649 AUDIO
    TITLE "LR_black_phrase_03_0649"
    INDEX 01 14:32:55
  TRACK 650 AUDIO
    TITLE "LR_black_phrase_03_0650"
    INDEX 01 14:33:09
  TRACK 651 AUDIO
    TITLE "LR_black_phrase_03_0651"
    INDEX 01 14:34:67
  TRACK 652 AUDIO
    TITLE "LR_black_phrase_03_0652"
    INDEX 01 14:35:73
  TRACK 653 AUDIO
    TITLE "LR_black_phrase_03_0653"
    INDEX 01 14:37:09
  TRACK 654 AUDIO
    TITLE "LR_black_phrase_03_0654"
    INDEX 01 14:37:50
  TRACK 655 AUDIO
    TITLE "LR_black_phrase_03_0655"
    INDEX 01 14:40:45
  TRACK 656 AUDIO
    TITLE "LR_black_phrase_03_0656"
    INDEX 01 14:41:38
  TRACK 657 AUDIO
    TITLE "LR_black_phrase_03_0657"
    INDEX 01 14:44:15
  TRACK 658 AUDIO
    TITLE "LR_black_phrase_03_0658"
    INDEX 01 14:44:54
  TRACK 659 AUDIO
    TITLE "LR_black_phrase_03_0659"
    INDEX 01 14:47:07
  TRACK 660 AUDIO
    TITLE "LR_black_phrase_03_0660"
    INDEX 01 14:47:37
  TRACK 661 AUDIO
    TITLE "LR_black_phrase_03_0661"
    INDEX 01 14:49:65
  TRACK 662 AUDIO
    TITLE "LR_black_phrase_03_0662"
    INDEX 01 14:50:70
  TRACK 663 AUDIO
    TITLE "LR_black_phrase_03_0663"
    INDEX 01 14:52:03
  TRACK 664 AUDIO
    TITLE "LR_black_phrase_03_0664"
    INDEX 01 14:52:44
  TRACK 665 AUDIO
    TITLE "LR_black_phrase_03_0665"
    INDEX 01 14:55:64
  TRACK 666 AUDIO
    TITLE "LR_black_phrase_03_0666"
    INDEX 01 14:56:65
  TRACK 667 AUDIO
    TITLE "LR_black_phrase_03_0667"
    INDEX 01 14:59:05
  TRACK 668 AUDIO
    TITLE "LR_black_phrase_03_0668"
    INDEX 01 14:59:44
  TRACK 669 AUDIO
    TITLE "LR_black_phrase_03_0669"
    INDEX 01 15:01:39
  TRACK 670 AUDIO
    TITLE "LR_black_phrase_03_0670"
    INDEX 01 15:01:70
  TRACK 671 AUDIO
    TITLE "LR_black_phrase_03_0671"
    INDEX 01 15:03:65
  TRACK 672 AUDIO
    TITLE "LR_black_phrase_03_0672"
    INDEX 01 15:04:73
  TRACK 673 AUDIO
    TITLE "LR_black_phrase_03_0673"
    INDEX 01 15:06:22
  TRACK 674 AUDIO
    TITLE "LR_black_phrase_03_0674"
    INDEX 01 15:06:62
  TRACK 675 AUDIO
    TITLE "LR_black_phrase_03_0675"
    INDEX 01 15:07:63
  TRACK 676 AUDIO
    TITLE "LR_black_phrase_03_0676"
    INDEX 01 15:08:64
  TRACK 677 AUDIO
    TITLE "LR_black_phrase_03_0677"
    INDEX 01 15:11:43
  TRACK 678 AUDIO
    TITLE "LR_black_phrase_03_0678"
    INDEX 01 15:12:07
  TRACK 679 AUDIO
    TITLE "LR_black_phrase_03_0679"
    INDEX 01 15:14:55
  TRACK 680 AUDIO
    TITLE "LR_black_phrase_03_0680"
    INDEX 01 15:15:10
  TRACK 681 AUDIO
    TITLE "LR_black_phrase_03_0681"
    INDEX 01 15:17:59
  TRACK 682 AUDIO
    TITLE "LR_black_phrase_03_0682"
    INDEX 01 15:18:63
  TRACK 683 AUDIO
    TITLE "LR_black_phrase_03_0683"
    INDEX 01 15:20:05
  TRACK 684 AUDIO
    TITLE "LR_black_phrase_03_0684"
    INDEX 01 15:20:46
  TRACK 685 AUDIO
    TITLE "LR_black_phrase_03_0685"
    INDEX 01 15:24:32
  TRACK 686 AUDIO
    TITLE "LR_black_phrase_03_0686"
    INDEX 01 15:25:30
  TRACK 687 AUDIO
    TITLE "LR_black_phrase_03_0687"
    INDEX 01 15:28:22
  TRACK 688 AUDIO
    TITLE "LR_black_phrase_03_0688"
    INDEX 01 15:28:63
  TRACK 689 AUDIO
    TITLE "LR_black_phrase_03_0689"
    INDEX 01 15:31:20
  TRACK 690 AUDIO
    TITLE "LR_black_phrase_03_0690"
    INDEX 01 15:31:52
  TRACK 691 AUDIO
    TITLE "LR_black_phrase_03_0691"
    INDEX 01 15:34:07
  TRACK 692 AUDIO
    TITLE "LR_black_phrase_03_0692"
    INDEX 01 15:35:12
  TRACK 693 AUDIO
    TITLE "LR_black_phrase_03_0693"
    INDEX 01 15:36:45
  TRACK 694 AUDIO
    TITLE "LR_black_phrase_03_0694"
    INDEX 01 15:37:09
  TRACK 695 AUDIO
    TITLE "LR_black_phrase_03_0695"
    INDEX 01 15:39:22
  TRACK 696 AUDIO
    TITLE "LR_black_phrase_03_0696"
    INDEX 01 15:40:19
  TRACK 697 AUDIO
    TITLE "LR_black_phrase_03_0697"
    INDEX 01 15:42:24
  TRACK 698 AUDIO
    TITLE "LR_black_phrase_03_0698"
    INDEX 01 15:42:65
  TRACK 699 AUDIO
    TITLE "LR_black_phrase_03_0699"
    INDEX 01 15:45:32
  TRACK 700 AUDIO
    TITLE "LR_black_phrase_03_0700"
    INDEX 01 15:45:54
  TRACK 701 AUDIO
    TITLE "LR_black_phrase_03_0701"
    INDEX 01 15:48:21
  TRACK 702 AUDIO
    TITLE "LR_black_phrase_03_0702"
    INDEX 01 15:49:16
  TRACK 703 AUDIO
    TITLE "LR_black_phrase_03_0703"
    INDEX 01 15:50:39
  TRACK 704 AUDIO
    TITLE "LR_black_phrase_03_0704"
    INDEX 01 15:51:02
  TRACK 705 AUDIO
    TITLE "LR_black_phrase_03_0705"
    INDEX 01 15:54:27
  TRACK 706 AUDIO
    TITLE "LR_black_phrase_03_0706"
    INDEX 01 15:55:27
  TRACK 707 AUDIO
    TITLE "LR_black_phrase_03_0707"
    INDEX 01 15:57:34
  TRACK 708 AUDIO
    TITLE "LR_black_phrase_03_0708"
    INDEX 01 15:57:65
  TRACK 709 AUDIO
    TITLE "LR_black_phrase_03_0709"
    INDEX 01 16:00:55
  TRACK 710 AUDIO
    TITLE "LR_black_phrase_03_0710"
    INDEX 01 16:01:02
  TRACK 711 AUDIO
    TITLE "LR_black_phrase_03_0711"
    INDEX 01 16:03:69
  TRACK 712 AUDIO
    TITLE "LR_black_phrase_03_0712"
    INDEX 01 16:04:67
  TRACK 713 AUDIO
    TITLE "LR_black_phrase_03_0713"
    INDEX 01 16:06:01
  TRACK 714 AUDIO
    TITLE "LR_black_phrase_03_0714"
    INDEX 01 16:06:42
  TRACK 715 AUDIO
    TITLE "LR_black_phrase_03_0715"
    INDEX 01 16:09:25
  TRACK 716 AUDIO
    TITLE "LR_black_phrase_03_0716"
    INDEX 01 16:10:28
  TRACK 717 AUDIO
    TITLE "LR_black_phrase_03_0717"
    INDEX 01 16:12:57
  TRACK 718 AUDIO
    TITLE "LR_black_phrase_03_0718"
    INDEX 01 16:13:17
  TRACK 719 AUDIO
    TITLE "LR_black_phrase_03_0719"
    INDEX 01 16:15:73
  TRACK 720 AUDIO
    TITLE "LR_black_phrase_03_0720"
    INDEX 01 16:16:23
  TRACK 721 AUDIO
    TITLE "LR_black_phrase_03_0721"
    INDEX 01 16:19:04
  TRACK 722 AUDIO
    TITLE "LR_black_phrase_03_0722"
    INDEX 01 16:20:01
  TRACK 723 AUDIO
    TITLE "LR_black_phrase_03_0723"
    INDEX 01 16:21:12
  TRACK 724 AUDIO
    TITLE "LR_black_phrase_03_0724"
    INDEX 01 16:21:48
  TRACK 725 AUDIO
    TITLE "LR_black_phrase_03_0725"
    INDEX 01 16:24:17
  TRACK 726 AUDIO
    TITLE "LR_black_phrase_03_0726"
    INDEX 01 16:25:14
  TRACK 727 AUDIO
    TITLE "LR_black_phrase_03_0727"
    INDEX 01 16:27:56
  TRACK 728 AUDIO
    TITLE "LR_black_phrase_03_0728"
    INDEX 01 16:28:14
  TRACK 729 AUDIO
    TITLE "LR_black_phrase_03_0729"
    INDEX 01 16:30:53
  TRACK 730 AUDIO
    TITLE "LR_black_phrase_03_0730"
    INDEX 01 16:31:07
  TRACK 731 AUDIO
    TITLE "LR_black_phrase_03_0731"
    INDEX 01 16:33:45
  TRACK 732 AUDIO
    TITLE "LR_black_phrase_03_0732"
    INDEX 01 16:34:48
  TRACK 733 AUDIO
    TITLE "LR_black_phrase_03_0733"
    INDEX 01 16:35:65
  TRACK 734 AUDIO
    TITLE "LR_black_phrase_03_0734"
    INDEX 01 16:36:28
  TRACK 735 AUDIO
    TITLE "LR_black_phrase_03_0735"
    INDEX 01 16:39:08
  TRACK 736 AUDIO
    TITLE "LR_black_phrase_03_0736"
    INDEX 01 16:40:10
  TRACK 737 AUDIO
    TITLE "LR_black_phrase_03_0737"
    INDEX 01 16:42:46
  TRACK 738 AUDIO
    TITLE "LR_black_phrase_03_0738"
    INDEX 01 16:43:04
  TRACK 739 AUDIO
    TITLE "LR_black_phrase_03_0739"
    INDEX 01 16:45:27
  TRACK 740 AUDIO
    TITLE "LR_black_phrase_03_0740"
    INDEX 01 16:45:50
  TRACK 741 AUDIO
    TITLE "LR_black_phrase_03_0741"
    INDEX 01 16:47:69
  TRACK 742 AUDIO
    TITLE "LR_black_phrase_03_0742"
    INDEX 01 16:48:64
  TRACK 743 AUDIO
    TITLE "LR_black_phrase_03_0743"
    INDEX 01 16:50:10
  TRACK 744 AUDIO
    TITLE "LR_black_phrase_03_0744"
    INDEX 01 16:50:51
  TRACK 745 AUDIO
    TITLE "LR_black_phrase_03_0745"
    INDEX 01 16:52:56
  TRACK 746 AUDIO
    TITLE "LR_black_phrase_03_0746"
    INDEX 01 16:53:54
  TRACK 747 AUDIO
    TITLE "LR_black_phrase_03_0747"
    INDEX 01 16:55:66
  TRACK 748 AUDIO
    TITLE "LR_black_phrase_03_0748"
    INDEX 01 16:56:26
  TRACK 749 AUDIO
    TITLE "LR_black_phrase_03_0749"
    INDEX 01 16:58:49
  TRACK 750 AUDIO
    TITLE "LR_black_phrase_03_0750"
    INDEX 01 16:58:66
  TRACK 751 AUDIO
    TITLE "LR_black_phrase_03_0751"
    INDEX 01 17:01:14
  TRACK 752 AUDIO
    TITLE "LR_black_phrase_03_0752"
    INDEX 01 17:02:07
  TRACK 753 AUDIO
    TITLE "LR_black_phrase_03_0753"
    INDEX 01 17:03:27
  TRACK 754 AUDIO
    TITLE "LR_black_phrase_03_0754"
    INDEX 01 17:03:60
  TRACK 755 AUDIO
    TITLE "LR_black_phrase_03_0755"
    INDEX 01 17:06:70
  TRACK 756 AUDIO
    TITLE "LR_black_phrase_03_0756"
    INDEX 01 17:07:69
  TRACK 757 AUDIO
    TITLE "LR_black_phrase_03_0757"
    INDEX 01 17:09:51
  TRACK 758 AUDIO
    TITLE "LR_black_phrase_03_0758"
    INDEX 01 17:10:17
  TRACK 759 AUDIO
    TITLE "LR_black_phrase_03_0759"
    INDEX 01 17:12:10
  TRACK 760 AUDIO
    TITLE "LR_black_phrase_03_0760"
    INDEX 01 17:12:29
  TRACK 761 AUDIO
    TITLE "LR_black_phrase_03_0761"
    INDEX 01 17:14:22
  TRACK 762 AUDIO
    TITLE "LR_black_phrase_03_0762"
    INDEX 01 17:15:18
  TRACK 763 AUDIO
    TITLE "LR_black_phrase_03_0763"
    INDEX 01 17:16:23
  TRACK 764 AUDIO
    TITLE "LR_black_phrase_03_0764"
    INDEX 01 17:16:60
  TRACK 765 AUDIO
    TITLE "LR_black_phrase_03_0765"
    INDEX 01 17:19:26
  TRACK 766 AUDIO
    TITLE "LR_black_phrase_03_0766"
    INDEX 01 17:20:25
  TRACK 767 AUDIO
    TITLE "LR_black_phrase_03_0767"
    INDEX 01 17:22:38
  TRACK 768 AUDIO
    TITLE "LR_black_phrase_03_0768"
    INDEX 01 17:23:02
  TRACK 769 AUDIO
    TITLE "LR_black_phrase_03_0769"
    INDEX 01 17:25:16
  TRACK 770 AUDIO
    TITLE "LR_black_phrase_03_0770"
    INDEX 01 17:25:40
  TRACK 771 AUDIO
    TITLE "LR_black_phrase_03_0771"
    INDEX 01 17:27:54
  TRACK 772 AUDIO
    TITLE "LR_black_phrase_03_0772"
    INDEX 01 17:28:48
  TRACK 773 AUDIO
    TITLE "LR_black_phrase_03_0773"
    INDEX 01 17:30:00
  TRACK 774 AUDIO
    TITLE "LR_black_phrase_03_0774"
    INDEX 01 17:30:35
  TRACK 775 AUDIO
    TITLE "LR_black_phrase_03_0775"
    INDEX 01 17:31:40
  TRACK 776 AUDIO
    TITLE "LR_black_phrase_03_0776"
    INDEX 01 17:32:40
  TRACK 777 AUDIO
    TITLE "LR_black_phrase_03_0777"
    INDEX 01 17:34:68
  TRACK 778 AUDIO
    TITLE "LR_black_phrase_03_0778"
    INDEX 01 17:35:27
  TRACK 779 AUDIO
    TITLE "LR_black_phrase_03_0779"
    INDEX 01 17:38:07
  TRACK 780 AUDIO
    TITLE "LR_black_phrase_03_0780"
    INDEX 01 17:38:27
  TRACK 781 AUDIO
    TITLE "LR_black_phrase_03_0781"
    INDEX 01 17:41:08
  TRACK 782 AUDIO
    TITLE "LR_black_phrase_03_0782"
    INDEX 01 17:42:03
  TRACK 783 AUDIO
    TITLE "LR_black_phrase_03_0783"
    INDEX 01 17:43:34
  TRACK 784 AUDIO
    TITLE "LR_black_phrase_03_0784"
    INDEX 01 17:43:67
  TRACK 785 AUDIO
    TITLE "LR_black_phrase_03_0785"
    INDEX 01 17:45:17
  TRACK 786 AUDIO
    TITLE "LR_black_phrase_03_0786"
    INDEX 01 17:46:17
  TRACK 787 AUDIO
    TITLE "LR_black_phrase_03_0787"
    INDEX 01 17:48:10
  TRACK 788 AUDIO
    TITLE "LR_black_phrase_03_0788"
    INDEX 01 17:48:41
  TRACK 789 AUDIO
    TITLE "LR_black_phrase_03_0789"
    INDEX 01 17:51:27
  TRACK 790 AUDIO
    TITLE "LR_black_phrase_03_0790"
    INDEX 01 17:51:53
  TRACK 791 AUDIO
    TITLE "LR_black_phrase_03_0791"
    INDEX 01 17:54:38
  TRACK 792 AUDIO
    TITLE "LR_black_phrase_03_0792"
    INDEX 01 17:55:37
  TRACK 793 AUDIO
    TITLE "LR_black_phrase_03_0793"
    INDEX 01 17:56:62
  TRACK 794 AUDIO
    TITLE "LR_black_phrase_03_0794"
    INDEX 01 17:57:24
  TRACK 795 AUDIO
    TITLE "LR_black_phrase_03_0795"
    INDEX 01 17:58:33
  TRACK 796 AUDIO
    TITLE "LR_black_phrase_03_0796"
    INDEX 01 17:59:35
  TRACK 797 AUDIO
    TITLE "LR_black_phrase_03_0797"
    INDEX 01 18:01:65
  TRACK 798 AUDIO
    TITLE "LR_black_phrase_03_0798"
    INDEX 01 18:02:25
  TRACK 799 AUDIO
    TITLE "LR_black_phrase_03_0799"
    INDEX 01 18:04:52
  TRACK 800 AUDIO
    TITLE "LR_black_phrase_03_0800"
    INDEX 01 18:04:71
  TRACK 801 AUDIO
    TITLE "LR_black_phrase_03_0801"
    INDEX 01 18:07:25
  TRACK 802 AUDIO
    TITLE "LR_black_phrase_03_0802"
    INDEX 01 18:08:26
  TRACK 803 AUDIO
    TITLE "LR_black_phrase_03_0803"
    INDEX 01 18:09:23
  TRACK 804 AUDIO
    TITLE "LR_black_phrase_03_0804"
    INDEX 01 18:09:65
  TRACK 805 AUDIO
    TITLE "LR_black_phrase_03_0805"
    INDEX 01 18:12:20
  TRACK 806 AUDIO
    TITLE "LR_black_phrase_03_0806"
    INDEX 01 18:13:19
  TRACK 807 AUDIO
    TITLE "LR_black_phrase_03_0807"
    INDEX 01 18:15:57
  TRACK 808 AUDIO
    TITLE "LR_black_phrase_03_0808"
    INDEX 01 18:16:22
  TRACK 809 AUDIO
    TITLE "LR_black_phrase_03_0809"
    INDEX 01 18:18:38
  TRACK 810 AUDIO
    TITLE "LR_black_phrase_03_0810"
    INDEX 01 18:18:73
  TRACK 811 AUDIO
    TITLE "LR_black_phrase_03_0811"
    INDEX 01 18:21:13
  TRACK 812 AUDIO
    TITLE "LR_black_phrase_03_0812"
    INDEX 01 18:22:16
  TRACK 813 AUDIO
    TITLE "LR_black_phrase_03_0813"
    INDEX 01 18:23:37
  TRACK 814 AUDIO
    TITLE "LR_black_phrase_03_0814"
    INDEX 01 18:24:01
  TRACK 815 AUDIO
    TITLE "LR_black_phrase_03_0815"
    INDEX 01 18:26:38
  TRACK 816 AUDIO
    TITLE "LR_black_phrase_03_0816"
    INDEX 01 18:27:37
  TRACK 817 AUDIO
    TITLE "LR_black_phrase_03_0817"
    INDEX 01 18:30:06
  TRACK 818 AUDIO
    TITLE "LR_black_phrase_03_0818"
    INDEX 01 18:30:47
  TRACK 819 AUDIO
    TITLE "LR_black_phrase_03_0819"
    INDEX 01 18:33:18
  TRACK 820 AUDIO
    TITLE "LR_black_phrase_03_0820"
    INDEX 01 18:33:49
  TRACK 821 AUDIO
    TITLE "LR_black_phrase_03_0821"
    INDEX 01 18:36:20
  TRACK 822 AUDIO
    TITLE "LR_black_phrase_03_0822"
    INDEX 01 18:37:24
  TRACK 823 AUDIO
    TITLE "LR_black_phrase_03_0823"
    INDEX 01 18:38:41
  TRACK 824 AUDIO
    TITLE "LR_black_phrase_03_0824"
    INDEX 01 18:39:07
  TRACK 825 AUDIO
    TITLE "LR_black_phrase_03_0825"
    INDEX 01 18:40:30
  TRACK 826 AUDIO
    TITLE "LR_black_phrase_03_0826"
    INDEX 01 18:41:27
  TRACK 827 AUDIO
    TITLE "LR_black_phrase_03_0827"
    INDEX 01 18:44:37
  TRACK 828 AUDIO
    TITLE "LR_black_phrase_03_0828"
    INDEX 01 18:45:00
  TRACK 829 AUDIO
    TITLE "LR_black_phrase_03_0829"
    INDEX 01 18:47:65
  TRACK 830 AUDIO
    TITLE "LR_black_phrase_03_0830"
    INDEX 01 18:48:20
  TRACK 831 AUDIO
    TITLE "LR_black_phrase_03_0831"
    INDEX 01 18:51:10
  TRACK 832 AUDIO
    TITLE "LR_black_phrase_03_0832"
    INDEX 01 18:52:15
  TRACK 833 AUDIO
    TITLE "LR_black_phrase_03_0833"
    INDEX 01 18:53:31
  TRACK 834 AUDIO
    TITLE "LR_black_phrase_03_0834"
    INDEX 01 18:53:72
  TRACK 835 AUDIO
    TITLE "LR_black_phrase_03_0835"
    INDEX 01 18:55:39
  TRACK 836 AUDIO
    TITLE "LR_black_phrase_03_0836"
    INDEX 01 18:56:37
  TRACK 837 AUDIO
    TITLE "LR_black_phrase_03_0837"
    INDEX 01 18:58:67
  TRACK 838 AUDIO
    TITLE "LR_black_phrase_03_0838"
    INDEX 01 18:59:29
  TRACK 839 AUDIO
    TITLE "LR_black_phrase_03_0839"
    INDEX 01 19:01:57
  TRACK 840 AUDIO
    TITLE "LR_black_phrase_03_0840"
    INDEX 01 19:02:12
  TRACK 841 AUDIO
    TITLE "LR_black_phrase_03_0841"
    INDEX 01 19:04:40
  TRACK 842 AUDIO
    TITLE "LR_black_phrase_03_0842"
    INDEX 01 19:05:44
  TRACK 843 AUDIO
    TITLE "LR_black_phrase_03_0843"
    INDEX 01 19:06:63
  TRACK 844 AUDIO
    TITLE "LR_black_phrase_03_0844"
    INDEX 01 19:07:27
  TRACK 845 AUDIO
    TITLE "LR_black_phrase_03_0845"
    INDEX 01 19:09:37
  TRACK 846 AUDIO
    TITLE "LR_black_phrase_03_0846"
    INDEX 01 19:10:37
  TRACK 847 AUDIO
    TITLE "LR_black_phrase_03_0847"
    INDEX 01 19:12:01
  TRACK 848 AUDIO
    TITLE "LR_black_phrase_03_0848"
    INDEX 01 19:12:30
  TRACK 849 AUDIO
    TITLE "LR_black_phrase_03_0849"
    INDEX 01 19:14:01
  TRACK 850 AUDIO
    TITLE "LR_black_phrase_03_0850"
    INDEX 01 19:14:23
  TRACK 851 AUDIO
    TITLE "LR_black_phrase_03_0851"
    INDEX 01 19:15:69
  TRACK 852 AUDIO
    TITLE "LR_black_phrase_03_0852"
    INDEX 01 19:17:00
  TRACK 853 AUDIO
    TITLE "LR_black_phrase_03_0853"
    INDEX 01 19:18:07
  TRACK 854 AUDIO
    TITLE "LR_black_phrase_03_0854"
    INDEX 01 19:18:50
  TRACK 855 AUDIO
    TITLE "LR_black_phrase_03_0855"
    INDEX 01 19:19:59
  TRACK 856 AUDIO
    TITLE "LR_black_phrase_03_0856"
    INDEX 01 19:20:59
  TRACK 857 AUDIO
    TITLE "LR_black_phrase_03_0857"
    INDEX 01 19:22:58
  TRACK 858 AUDIO
    TITLE "LR_black_phrase_03_0858"
    INDEX 01 19:23:22
  TRACK 859 AUDIO
    TITLE "LR_black_phrase_03_0859"
    INDEX 01 19:25:15
  TRACK 860 AUDIO
    TITLE "LR_black_phrase_03_0860"
    INDEX 01 19:25:44
  TRACK 861 AUDIO
    TITLE "LR_black_phrase_03_0861"
    INDEX 01 19:27:37
  TRACK 862 AUDIO
    TITLE "LR_black_phrase_03_0862"
    INDEX 01 19:28:43
  TRACK 863 AUDIO
    TITLE "LR_black_phrase_03_0863"
    INDEX 01 19:29:62
  TRACK 864 AUDIO
    TITLE "LR_black_phrase_03_0864"
    INDEX 01 19:30:28
  TRACK 865 AUDIO
    TITLE "LR_black_phrase_03_0865"
    INDEX 01 19:31:59
  TRACK 866 AUDIO
    TITLE "LR_black_phrase_03_0866"
    INDEX 01 19:32:58
  TRACK 867 AUDIO
    TITLE "LR_black_phrase_03_0867"
    INDEX 01 19:34:49
  TRACK 868 AUDIO
    TITLE "LR_black_phrase_03_0868"
    INDEX 01 19:35:11
  TRACK 869 AUDIO
    TITLE "LR_black_phrase_03_0869"
    INDEX 01 19:37:10
  TRACK 870 AUDIO
    TITLE "LR_black_phrase_03_0870"
    INDEX 01 19:37:40
  TRACK 871 AUDIO
    TITLE "LR_black_phrase_03_0871"
    INDEX 01 19:39:37
  TRACK 872 AUDIO
    TITLE "LR_black_phrase_03_0872"
    INDEX 01 19:40:42
  TRACK 873 AUDIO
    TITLE "LR_black_phrase_03_0873"
    INDEX 01 19:41:57
  TRACK 874 AUDIO
    TITLE "LR_black_phrase_03_0874"
    INDEX 01 19:42:23
  TRACK 875 AUDIO
    TITLE "LR_black_phrase_03_0875"
    INDEX 01 19:43:42
  TRACK 876 AUDIO
    TITLE "LR_black_phrase_03_0876"
    INDEX 01 19:44:42
  TRACK 877 AUDIO
    TITLE "LR_black_phrase_03_0877"
    INDEX 01 19:47:22
  TRACK 878 AUDIO
    TITLE "LR_black_phrase_03_0878"
    INDEX 01 19:47:62
  TRACK 879 AUDIO
    TITLE "LR_black_phrase_03_0879"
    INDEX 01 19:50:46
  TRACK 880 AUDIO
    TITLE "LR_black_phrase_03_0880"
    INDEX 01 19:50:74
  TRACK 881 AUDIO
    TITLE "LR_black_phrase_03_0881"
    INDEX 01 19:53:60
  TRACK 882 AUDIO
    TITLE "LR_black_phrase_03_0882"
    INDEX 01 19:54:62
  TRACK 883 AUDIO
    TITLE "LR_black_phrase_03_0883"
    INDEX 01 19:56:10
  TRACK 884 AUDIO
    TITLE "LR_black_phrase_03_0884"
    INDEX 01 19:56:49
  TRACK 885 AUDIO
    TITLE "LR_black_phrase_03_0885"
    INDEX 01 19:59:02
  TRACK 886 AUDIO
    TITLE "LR_black_phrase_03_0886"
    INDEX 01 20:00:01
  TRACK 887 AUDIO
    TITLE "LR_black_phrase_03_0887"
    INDEX 01 20:04:23
  TRACK 888 AUDIO
    TITLE "LR_black_phrase_03_0888"
    INDEX 01 20:04:62
  TRACK 889 AUDIO
    TITLE "LR_black_phrase_03_0889"
    INDEX 01 20:09:02
  TRACK 890 AUDIO
    TITLE "LR_black_phrase_03_0890"
    INDEX 01 20:09:32
  TRACK 891 AUDIO
    TITLE "LR_black_phrase_03_0891"
    INDEX 01 20:13:47
  TRACK 892 AUDIO
    TITLE "LR_black_phrase_03_0892"
    INDEX 01 20:14:53
  TRACK 893 AUDIO
    TITLE "LR_black_phrase_03_0893"
    INDEX 01 20:15:70
  TRACK 894 AUDIO
    TITLE "LR_black_phrase_03_0894"
    INDEX 01 20:16:36
  TRACK 895 AUDIO
    TITLE "LR_black_phrase_03_0895"
    INDEX 01 20:18:52
  TRACK 896 AUDIO
    TITLE "LR_black_phrase_03_0896"
    INDEX 01 20:19:52
  TRACK 897 AUDIO
    TITLE "LR_black_phrase_03_0897"
    INDEX 01 20:21:45
  TRACK 898 AUDIO
    TITLE "LR_black_phrase_03_0898"
    INDEX 01 20:22:11
  TRACK 899 AUDIO
    TITLE "LR_black_phrase_03_0899"
    INDEX 01 20:24:18
  TRACK 900 AUDIO
    TITLE "LR_black_phrase_03_0900"
    INDEX 01 20:24:47
  TRACK 901 AUDIO
    TITLE "LR_black_phrase_03_0901"
    INDEX 01 20:26:56
  TRACK 902 AUDIO
    TITLE "LR_black_phrase_03_0902"
    INDEX 01 20:27:55
  TRACK 903 AUDIO
    TITLE "LR_black_phrase_03_0903"
    INDEX 01 20:28:66
  TRACK 904 AUDIO
    TITLE "LR_black_phrase_03_0904"
    INDEX 01 20:29:34
  TRACK 905 AUDIO
    TITLE "LR_black_phrase_03_0905"
    INDEX 01 20:31:00
  TRACK 906 AUDIO
    TITLE "LR_black_phrase_03_0906"
    INDEX 01 20:32:00
  TRACK 907 AUDIO
    TITLE "LR_black_phrase_03_0907"
    INDEX 01 20:34:65
  TRACK 908 AUDIO
    TITLE "LR_black_phrase_03_0908"
    INDEX 01 20:35:29
  TRACK 909 AUDIO
    TITLE "LR_black_phrase_03_0909"
    INDEX 01 20:38:30
  TRACK 910 AUDIO
    TITLE "LR_black_phrase_03_0910"
    INDEX 01 20:38:55
  TRACK 911 AUDIO
    TITLE "LR_black_phrase_03_0911"
    INDEX 01 20:41:53
  TRACK 912 AUDIO
    TITLE "LR_black_phrase_03_0912"
    INDEX 01 20:42:49
  TRACK 913 AUDIO
    TITLE "LR_black_phrase_03_0913"
    INDEX 01 20:44:05
  TRACK 914 AUDIO
    TITLE "LR_black_phrase_03_0914"
    INDEX 01 20:44:40
  TRACK 915 AUDIO
    TITLE "LR_black_phrase_03_0915"
    INDEX 01 20:46:74
  TRACK 916 AUDIO
    TITLE "LR_black_phrase_03_0916"
    INDEX 01 20:48:02
  TRACK 917 AUDIO
    TITLE "LR_black_phrase_03_0917"
    INDEX 01 20:50:03
  TRACK 918 AUDIO
    TITLE "LR_black_phrase_03_0918"
    INDEX 01 20:50:42
  TRACK 919 AUDIO
    TITLE "LR_black_phrase_03_0919"
    INDEX 01 20:52:71
  TRACK 920 AUDIO
    TITLE "LR_black_phrase_03_0920"
    INDEX 01 20:53:15
  TRACK 921 AUDIO
    TITLE "LR_black_phrase_03_0921"
    INDEX 01 20:55:46
  TRACK 922 AUDIO
    TITLE "LR_black_phrase_03_0922"
    INDEX 01 20:56:39
  TRACK 923 AUDIO
    TITLE "LR_black_phrase_03_0923"
    INDEX 01 20:57:50
  TRACK 924 AUDIO
    TITLE "LR_black_phrase_03_0924"
    INDEX 01 20:58:11
  TRACK 925 AUDIO
    TITLE "LR_black_phrase_03_0925"
    INDEX 01 21:00:62
  TRACK 926 AUDIO
    TITLE "LR_black_phrase_03_0926"
    INDEX 01 21:01:58
  TRACK 927 AUDIO
    TITLE "LR_black_phrase_03_0927"
    INDEX 01 21:03:49
  TRACK 928 AUDIO
    TITLE "LR_black_phrase_03_0928"
    INDEX 01 21:04:07
  TRACK 929 AUDIO
    TITLE "LR_black_phrase_03_0929"
    INDEX 01 21:05:52
  TRACK 930 AUDIO
    TITLE "LR_black_phrase_03_0930"
    INDEX 01 21:05:73
  TRACK 931 AUDIO
    TITLE "LR_black_phrase_03_0931"
    INDEX 01 21:07:45
  TRACK 932 AUDIO
    TITLE "LR_black_phrase_03_0932"
    INDEX 01 21:08:42
  TRACK 933 AUDIO
    TITLE "LR_black_phrase_03_0933"
    INDEX 01 21:09:65
  TRACK 934 AUDIO
    TITLE "LR_black_phrase_03_0934"
    INDEX 01 21:10:26
  TRACK 935 AUDIO
    TITLE "LR_black_phrase_03_0935"
    INDEX 01 21:11:37
  TRACK 936 AUDIO
    TITLE "LR_black_phrase_03_0936"
    INDEX 01 21:12:34
  TRACK 937 AUDIO
    TITLE "LR_black_phrase_03_0937"
    INDEX 01 21:15:17
  TRACK 938 AUDIO
    TITLE "LR_black_phrase_03_0938"
    INDEX 01 21:15:50
  TRACK 939 AUDIO
    TITLE "LR_black_phrase_03_0939"
    INDEX 01 21:18:17
  TRACK 940 AUDIO
    TITLE "LR_black_phrase_03_0940"
    INDEX 01 21:18:37
  TRACK 941 AUDIO
    TITLE "LR_black_phrase_03_0941"
    INDEX 01 21:21:06
  TRACK 942 AUDIO
    TITLE "LR_black_phrase_03_0942"
    INDEX 01 21:21:74
  TRACK 943 AUDIO
    TITLE "LR_black_phrase_03_0943"
    INDEX 01 21:23:18
  TRACK 944 AUDIO
    TITLE "LR_black_phrase_03_0944"
    INDEX 01 21:23:58
  TRACK 945 AUDIO
    TITLE "LR_black_phrase_03_0945"
    INDEX 01 21:25:72
  TRACK 946 AUDIO
    TITLE "LR_black_phrase_03_0946"
    INDEX 01 21:26:72
  TRACK 947 AUDIO
    TITLE "LR_black_phrase_03_0947"
    INDEX 01 21:28:61
  TRACK 948 AUDIO
    TITLE "LR_black_phrase_03_0948"
    INDEX 01 21:29:23
  TRACK 949 AUDIO
    TITLE "LR_black_phrase_03_0949"
    INDEX 01 21:31:65
  TRACK 950 AUDIO
    TITLE "LR_black_phrase_03_0950"
    INDEX 01 21:32:10
  TRACK 951 AUDIO
    TITLE "LR_black_phrase_03_0951"
    INDEX 01 21:34:54
  TRACK 952 AUDIO
    TITLE "LR_black_phrase_03_0952"
    INDEX 01 21:35:49
  TRACK 953 AUDIO
    TITLE "LR_black_phrase_03_0953"
    INDEX 01 21:36:64
  TRACK 954 AUDIO
    TITLE "LR_black_phrase_03_0954"
    INDEX 01 21:37:22
  TRACK 955 AUDIO
    TITLE "LR_black_phrase_03_0955"
    INDEX 01 21:38:40
  TRACK 956 AUDIO
    TITLE "LR_black_phrase_03_0956"
    INDEX 01 21:39:41
  TRACK 957 AUDIO
    TITLE "LR_black_phrase_03_0957"
    INDEX 01 21:41:57
  TRACK 958 AUDIO
    TITLE "LR_black_phrase_03_0958"
    INDEX 01 21:42:14
  TRACK 959 AUDIO
    TITLE "LR_black_phrase_03_0959"
    INDEX 01 21:44:03
  TRACK 960 AUDIO
    TITLE "LR_black_phrase_03_0960"
    INDEX 01 21:44:24
  TRACK 961 AUDIO
    TITLE "LR_black_phrase_03_0961"
    INDEX 01 21:46:14
  TRACK 962 AUDIO
    TITLE "LR_black_phrase_03_0962"
    INDEX 01 21:47:09
  TRACK 963 AUDIO
    TITLE "LR_black_phrase_03_0963"
    INDEX 01 21:48:24
  TRACK 964 AUDIO
    TITLE "LR_black_phrase_03_0964"
    INDEX 01 21:48:58
  TRACK 965 AUDIO
    TITLE "LR_black_phrase_03_0965"
    INDEX 01 21:51:19
  TRACK 966 AUDIO
    TITLE "LR_black_phrase_03_0966"
    INDEX 01 21:52:16
  TRACK 967 AUDIO
    TITLE "LR_black_phrase_03_0967"
    INDEX 01 21:55:09
  TRACK 968 AUDIO
    TITLE "LR_black_phrase_03_0968"
    INDEX 01 21:55:42
  TRACK 969 AUDIO
    TITLE "LR_black_phrase_03_0969"
    INDEX 01 21:58:09
  TRACK 970 AUDIO
    TITLE "LR_black_phrase_03_0970"
    INDEX 01 21:58:27
  TRACK 971 AUDIO
    TITLE "LR_black_phrase_03_0971"
    INDEX 01 22:00:69
  TRACK 972 AUDIO
    TITLE "LR_black_phrase_03_0972"
    INDEX 01 22:01:62
  TRACK 973 AUDIO
    TITLE "LR_black_phrase_03_0973"
    INDEX 01 22:03:12
  TRACK 974 AUDIO
    TITLE "LR_black_phrase_03_0974"
    INDEX 01 22:03:51
  TRACK 975 AUDIO
    TITLE "LR_black_phrase_03_0975"
    INDEX 01 22:05:54
  TRACK 976 AUDIO
    TITLE "LR_black_phrase_03_0976"
    INDEX 01 22:06:57
  TRACK 977 AUDIO
    TITLE "LR_black_phrase_03_0977"
    INDEX 01 22:08:27
  TRACK 978 AUDIO
    TITLE "LR_black_phrase_03_0978"
    INDEX 01 22:08:64
  TRACK 979 AUDIO
    TITLE "LR_black_phrase_03_0979"
    INDEX 01 22:10:67
  TRACK 980 AUDIO
    TITLE "LR_black_phrase_03_0980"
    INDEX 01 22:11:14
  TRACK 981 AUDIO
    TITLE "LR_black_phrase_03_0981"
    INDEX 01 22:13:18
  TRACK 982 AUDIO
    TITLE "LR_black_phrase_03_0982"
    INDEX 01 22:14:14
  TRACK 983 AUDIO
    TITLE "LR_black_phrase_03_0983"
    INDEX 01 22:15:45
  TRACK 984 AUDIO
    TITLE "LR_black_phrase_03_0984"
    INDEX 01 22:16:03
  TRACK 985 AUDIO
    TITLE "LR_black_phrase_03_0985"
    INDEX 01 22:17:45
  TRACK 986 AUDIO
    TITLE "LR_black_phrase_03_0986"
    INDEX 01 22:18:45
  TRACK 987 AUDIO
    TITLE "LR_black_phrase_03_0987"
    INDEX 01 22:21:16
  TRACK 988 AUDIO
    TITLE "LR_black_phrase_03_0988"
    INDEX 01 22:21:49
  TRACK 989 AUDIO
    TITLE "LR_black_phrase_03_0989"
    INDEX 01 22:24:61
  TRACK 990 AUDIO
    TITLE "LR_black_phrase_03_0990"
    INDEX 01 22:25:12
  TRACK 991 AUDIO
    TITLE "LR_black_phrase_03_0991"
    INDEX 01 22:28:24
  TRACK 992 AUDIO
    TITLE "LR_black_phrase_03_0992"
    INDEX 01 22:29:25
  TRACK 993 AUDIO
    TITLE "LR_black_phrase_03_0993"
    INDEX 01 22:30:48
  TRACK 994 AUDIO
    TITLE "LR_black_phrase_03_0994"
    INDEX 01 22:31:06
  TRACK 995 AUDIO
    TITLE "LR_black_phrase_03_0995"
    INDEX 01 22:32:16
  TRACK 996 AUDIO
    TITLE "LR_black_phrase_03_0996"
    INDEX 01 22:33:15
  TRACK 997 AUDIO
    TITLE "LR_black_phrase_03_0997"
    INDEX 01 22:34:56
  TRACK 998 AUDIO
    TITLE "LR_black_phrase_03_0998"
    INDEX 01 22:35:16
  TRACK 999 AUDIO
    TITLE "LR_black_phrase_03_0999"
    INDEX 01 22:37:23
  TRACK 1000 AUDIO
    TITLE "LR_black_phrase_03_1000"
    INDEX 01 22:37:44
  TRACK 1001 AUDIO
    TITLE "LR_black_phrase_03_1001"
    INDEX 01 22:39:53
